<svg id="Layer_1" data-name="Layer 1" xmlns="http://www.w3.org/2000/svg" viewBox="0 0 650.95 841.41"><path d="M466.87,691.51c-5.44,1.84-9.83,3.36-14.24,4.81-9,3-9.74,2.7-14-4.84l-66.66,14.38c1.55,3.1,3.17,6.7,5.08,10.14q31.35,56.81,62.81,113.55c2.52,4.55,2.31,8.44-.95,10.65-3.5,2.38-7.61,1.28-10.31-3.52q-28.83-51.34-57.39-102.85c-4.28-7.71-8.23-15.61-12-23.57-1.47-3.09-3.18-4.21-6.74-4.37a163.86,163.86,0,0,1-24.25-2.43c-10.53-2-17.62-8.21-21.06-19C302.17,669.14,297,653.8,290.74,639c-5.95-14.13-.57-24.81,7.87-35.24,1.14-1.42,2.77-2.55,3.6-4.11.73-1.37,1.37-3.49.81-4.73-7.09-15.78-14.41-31.46-21.68-47.16-.2-.44-.48-.85-1.43-2.48-1.54,11.25-2.93,21-4.21,30.81q-7.29,55.71-14.51,111.41-8.85,67.83-17.75,135.67c-.47,3.63-1,7.25-1.59,10.86-.78,5.06-3.29,7.51-7.25,7.14-4.23-.4-6.53-3.53-5.87-8.75,2.38-18.83,4.92-37.64,7.38-56.46Q244,716,251.89,656.1a10.06,10.06,0,0,0-2.63-8.5c-36.11-43.77-58.71-94.11-71.21-149.09C165,441,162.16,382.77,168.11,324.22c6.86-67.59,23.9-132.53,53.41-194,.64-1.33,1.17-2.72,1.61-3.75l-35.08-21.59c-.36.91-1,2.35-1.49,3.82C167.44,162.2,136,206,86.22,235c-23.73,13.84-49.43,22.1-76.62,25.79-5.74.78-8.95-1.16-9.53-5.4-.55-4,2.17-6.82,7.83-7.67,50.9-7.59,93.14-30.61,125.81-70.62a235,235,0,0,0,42.35-79.2c1.09-3.47.55-5.79-1.73-8.51C154.93,66.21,145.88,38.93,143,9.28c-.56-5.81,1.54-8.92,5.79-9.25s6.79,2.17,7.41,8.06c1.69,16,4.92,31.64,11.88,46.2,18.36,38.41,48.35,60.87,91.06,65.77,16.19,1.86,32.57,3.09,48.41,6.63,34.18,7.64,62,26.93,86.59,51.1,33.15,32.54,57.89,71.15,79.54,111.88,29.21,55,51.84,112.7,72,171.48,3.67,10.71,7.34,21.41,10.69,32.22,1.1,3.55,2.65,4.82,6.51,5.1A105.87,105.87,0,0,1,583,501.75c8.47,2.31,14.23,7.79,17.16,16.54q8.4,25.08,17.8,49.82c3.27,8.62,2.37,16.69-2.75,23.73a168.91,168.91,0,0,1-18.1,20.47c-2.9,2.86-3.74,4.93-2.63,8.88,14.82,52.71,29.62,105.41,44,158.23,4.67,17.17,8.15,34.66,12.16,52,1.16,5-.52,8.53-4.52,9.51s-7.25-1.45-8.42-6.38c-4.91-20.73-9.19-41.63-14.77-62.18C609.76,724,596,675.88,582.52,627.65c-.21-.75-.54-1.47-1-2.76-2.67,1.76-4.89,3.43-7.3,4.77-17.72,9.85-35.39,19.82-53.32,29.28-4.11,2.17-3.48,4.22-2.33,7.46a984.94,984.94,0,0,0,74.32,161.69c.49.86,1,1.72,1.45,2.62,1.95,4.08,1.1,7.63-2.27,9.52s-7,.9-9.28-3c-5.86-10.25-11.56-20.6-17.27-31-2.39-4.34-4.66-8.75-7.25-13.62-3.92,3.11-7.36,5.92-10.88,8.62-3.85,2.93-7.65,2.8-10.2-.23s-2-6.82,1.68-10c3.41-2.91,6.9-5.76,10.5-8.45,2.09-1.57,2.61-3,1.31-5.45-2.34-4.37-4.37-8.91-6.75-13.84-6.09,4.7-11.65,9.49-17.77,13.41-2,1.28-5.95,1.2-8.06,0-1.59-.88-2.3-4.52-2.2-6.87.07-1.56,2.07-3.28,3.56-4.49,5.16-4.21,10.4-8.32,15.76-12.26,2.27-1.67,2.86-3.17,1.52-5.81-2.16-4.29-3.93-8.77-6.21-14-3.42,2.61-6.5,4.95-9.57,7.31-1.46,1.12-2.86,2.3-4.33,3.38-4.23,3.1-8.06,2.93-10.54-.42-2.36-3.18-1.63-6.88,2.18-10,4.53-3.67,9.1-7.29,13.79-10.73,2.24-1.65,3-3.24,1.73-5.87-1.76-3.73-3.24-7.58-5.14-12.11l-49.3,35.31c3.72,7.41,7.18,14.76,11,21.9q18,33.4,36.2,66.67c1.79,3.27,3.12,6.39.66,9.73-3,4.07-8.52,3.29-11.44-1.78-7-12.27-14.16-24.5-20.79-37-9.67-18.22-18.85-36.7-28.44-55a15.44,15.44,0,0,1-1.14-12.41C459.3,719.2,462.87,705.89,466.87,691.51Zm8.45-91c29.24-12.53,57.6-26.69,83.19-45.87,1.19-.89,1.58-4.12,1.06-5.88-15.8-53.3-33.33-106-54-157.64-17.22-43-36.47-85-60.39-124.76-21.84-36.27-46.69-70.13-80.37-96.55-21-16.49-44.19-28.5-70.92-32.42-17.28-2.53-34.67-4.28-51.94-6.86-4-.59-5.81,0-7.59,3.67-32.63,68.14-50.25,140.08-54.81,215.35a527.55,527.55,0,0,0,9.11,134.65C199,536.76,219,585.11,250.92,628.3c1,1.35,2.1,2.61,3.76,4.65.45-2.64.76-4.09.95-5.55,4-30,7.64-60.1,12-90.07,1.52-10.37,1.54-20-4.14-29.18-1.83-2.95-3-6.31-4.42-9.5-3.17-7.15-6.4-14.27-9.39-21.5-1.58-3.82-.25-7,3.55-8.59,3.58-1.52,6.51-.29,8.41,3.11.73,1.3,1.27,2.7,1.9,4.06q36.21,78.67,72.37,157.36c1.42,3.1,3.21,4.2,6.51,3.72,10.21-1.49,20.53-2.33,30.63-4.35,14.14-2.83,28.11-6.49,42.06-9.78-1.59-11.88-1.61-11.93,9.54-15.74,11.81-4,23.67-7.9,35.49-11.92C469.77,591.74,470.38,591.91,475.32,600.56Zm20.28,5.66-16.53,7.49c4.9,14.56,9.61,28.54,14.28,42.4a5.69,5.69,0,0,0,1.48,0c3.68-1.55,7.38-3.05,11-4.7,29-13.21,57.3-27.68,81.68-48.53,6.36-5.43,11.47-12.37,16.8-18.91,2.69-3.3,2.56-7.27,1-11.36-3.68-9.63-7-19.38-10.58-29.07a10.85,10.85,0,0,0-1-1.88c-9.63,8.46-19,16.9-28.64,25-2.26,1.89-2.56,3.27-1.59,5.8,2.24,5.9,4.3,11.89,6.27,17.89,1.34,4.08-.38,7.84-4,8.93-4,1.19-6.82-.42-8.41-4.19-.71-1.69-1.24-3.45-1.85-5.17-1.51-4.29-3-8.58-4.71-13.32L537.29,585c3.6,10,7.2,19.33,10.2,28.83a8.71,8.71,0,0,1-1.41,7.18c-1.26,1.43-4.75,2.09-6.67,1.42s-3.77-3.17-4.61-5.28c-3.31-8.31-6.21-16.78-9.36-25.46-5.32,2.65-10.29,4.93-15,7.67-1,.58-1.72,3-1.39,4.28,1.13,4.33,2.85,8.51,4.24,12.78,1.56,4.79,0,8.57-3.88,9.81-3.65,1.18-7-.83-8.66-5.39S497.44,611.46,495.6,606.22ZM369.27,646.94c3.1,8.54,6.06,16.47,8.83,24.46,1.6,4.61.13,8.08-3.68,9.52s-7-.27-8.77-5c-3-7.78-5.9-15.57-8.55-23.45-.93-2.75-2.21-3.47-5.05-3.3-9.46.58-18.94,1-28.42,1.09-4.71,0-9.43-.95-14.91-1.55,3.69,10.32,7.8,19.81,10.4,29.7,2.27,8.63,7.95,11.77,15.66,13a101,101,0,0,0,11.91,1.13c17.26.62,34.22-1.92,51-5.56,12.14-2.62,24.17-5.76,36.88-8.83L420,634.77l-16.88,4.8c2.11,6.27,4.12,11.89,5.91,17.59,1.58,5.06-1,9.24-5.71,9.39-3.73.12-5.75-2-6.9-5.34-2.09-6.08-4.28-12.13-6.5-18.42Zm93.85-38.8L429,619.62c7.21,21.44,14.2,42.27,21.29,63.37l34.05-11.48C477.26,650.34,470.32,629.62,463.12,608.14Zm41.41,59c-4.49.78-7.36,1.79-5.38,7.13,1.31,3.53-.87,6.46-4.39,7.89a42.76,42.76,0,0,1-7.11,2.31c-4,.84-6.18,2.85-7,7.1-1.15,5.85-3.1,11.55-4.69,17.32-1,3.71-2,7.42-3.06,11.13,13.53-8.48,26.09-17.43,38.49-26.6,1-.73,1.52-3.22,1.1-4.51C510.05,681.66,507.27,674.54,504.53,667.12Zm67.29-124.63,2,.82c4-5.81,8.28-11.45,11.89-17.48,2.48-4.13,1-8.25-3.44-9.85-6.13-2.23-12.6-3.5-20.31-5.56ZM311,611.54l-1.69-.5c-2.47,4.24-5.25,8.34-7.32,12.77-1.69,3.63-.52,7.23,3.34,8.71,5.31,2.05,10.87,3.41,16.33,5.07l1-1.54Q316.77,623.8,311,611.54Z"/></svg>