<svg id="Layer_1" data-name="Layer 1" xmlns="http://www.w3.org/2000/svg" viewBox="0 0 479.14 430.71"><path d="M446.86,303.11H401.71c-1.06,42.43-2.11,84.73-3.17,127.31H382.69c1.45-52.62,2.9-105.06,4.35-157.71a32.08,32.08,0,0,1,3.67-.24c4,.23,7.9.52,12.07.81v13.57h60.56c.21-4.48.54-9.05.62-13.63.71-39.11.28-78.19-4.84-117.05-2-15.16-4.79-30.17-10.82-44.4-4.06-9.58-11-15.91-21.88-20-4.53,15.22-9.76,30-13.16,45.1-3.37,15-4.9,30.42-7.3,46H391.42c.85-33.61,8.79-65.26,21.26-96.94-10.9-2.6-21.27-5.37-31.77-7.52-12.21-2.5-24.55-4.31-36.77-6.74-4.24-.84-6.34.16-8.5,4.15-21.12,39-54,59.8-98.34,59.05-42-.71-73.32-21.1-93.51-57.95-2.64-4.8-5-6.19-10.34-5C113.34,76.35,93.12,80.23,73,84.37a66.51,66.51,0,0,0-6.6,2.09c12.26,31.07,20.13,62.74,21.06,96.22-1.82.16-3.28.38-4.73.4-3.46,0-6.91,0-10.83,0-1.32-31.57-8.32-61.62-20.36-91-8.25,3.41-15,8-19.09,16-6.58,12.75-9.51,26.59-11.58,40.55-6.63,44.76-7,89.8-5.51,134.91,0,1,.19,2,.33,3.36H75.72V273.25l16-.95c1.46,52.95,2.91,105.39,4.38,158.41H80.27c-1-42.64-2.09-84.82-3.14-127.38H32.25V430.4H16.53V302.93c-3.22,0-5.67.07-8.12,0C3.23,302.73,0,300,0,295c.06-34.25-.22-68.52.64-102.75.58-22.93,4-45.61,9-68.1,6-27.19,21.8-44,48.54-51.91A492.17,492.17,0,0,1,135.13,56c16.9-2.16,28.56-10.69,37.46-24.25A68.41,68.41,0,0,0,183.84,0h15.88C196.22,29.54,182.9,52.17,157,67c7.2,20.62,35.39,49.21,75.86,52.36,36.87,2.87,76.08-19.88,89.36-52.16C296.14,52.54,282.63,29.78,279.1,0h15.18c1.76,6.45,2.84,12.91,5.28,18.8,9,21.82,23.83,35.58,48.89,38.11C373,59.39,397.14,65.32,421,72.37c26.55,7.85,42.1,24.7,48.18,51.64a395,395,0,0,1,9.56,77.07c.77,30.25.3,60.53.23,90.79,0,9-2.31,11-11.36,11.07-1.46,0-2.93.14-5,.24V430.33H446.86Z"/><path d="M178.22,276.51c-.95,5.93-1.89,11.75-2.93,18.23-7.19-4.93-14.17-9.14-20.49-14.19-8.31-6.65-17.6-10-28-11.7-17.39-2.92-34.54-7.26-50.45-15A85.19,85.19,0,0,1,56.08,240.5c-11.24-10.33-11-23.9-.16-34.66,3.26-3.25,7.15-5.86,11.33-9.23l7.93,13.53C72,212.83,69,215,66.52,217.59c-4,4.14-4.39,7.64.06,11.12A95.63,95.63,0,0,0,86.27,241c16.79,7.46,34.75,11.16,52.79,14.21a16.33,16.33,0,0,0,8.14-1.09c10.37-4,20.61-8.4,30.91-12.62,1.49-.61,3-1,5.11-1.72l-2.84,20.8c6.53.53,12.73,1.17,19,1.53a654.85,654.85,0,0,0,114.6-3c25.76-3,51.4-7.18,75.66-16.87a95.13,95.13,0,0,0,20.74-11.61c6.85-5,6.46-9.47.06-15-2.24-1.94-4.72-3.61-7.46-5.68l7.46-13.26c8.05,4.3,14.76,9.53,18.54,17.67,4.09,8.83,2.39,17.37-4.16,24a74.76,74.76,0,0,1-18.25,13.54c-20.26,10.57-42.42,15.31-64.73,19.09-47.12,8-94.58,9.48-142.23,6.94-3.48-.18-7-.58-10.44-.8S182.19,276.7,178.22,276.51Z"/></svg>