<svg id="Layer_1" data-name="Layer 1" xmlns="http://www.w3.org/2000/svg" viewBox="0 0 512 512"><defs><style>.cls-1{fill:#1d1d1b;}</style></defs><path class="cls-1" d="M500.27,139h0l-35.36-35.35L500.27,68.3a10,10,0,0,0,0-14.15L457.85,11.73a10,10,0,0,0-14.15,0L408.33,47.09,373,11.73a40,40,0,0,0-56.57,0l-15,15a40,40,0,0,0-48.61,62.76l56.57,56.58L146.1,309.33,89.52,252.76a40,40,0,0,0-62.76,48.61l-15,15a40,40,0,0,0,0,56.57l35.36,35.36L11.73,443.7a10,10,0,0,0,0,14.15l42.42,42.42a10,10,0,0,0,14.15,0l35.37-35.36L139,500.27a40,40,0,0,0,56.57,0l15-15a40,40,0,0,0,48.61-62.76L202.67,365.9l48.85-48.85a10,10,0,0,0-14.15-14.14l-48.85,48.85-28.28-28.28L323.48,160.24l28.28,28.28L301,239.29a10,10,0,1,0,14.14,14.15l50.77-50.77,56.58,56.57a40,40,0,0,0,62.76-48.61l15-15A40,40,0,0,0,500.27,139Zm-439,340L33,450.77l28.28-28.29,28.29,28.29Zm120.22,7.07a20,20,0,0,1-28.28,0L25.87,358.83a20,20,0,0,1,0-28.28L40,316.4,195.6,472Zm63.65-49.51a20,20,0,0,1-28.28,28.3h0L47.08,295.18a20,20,0,0,1,28.3-28.28ZM450.77,32.94l28.29,28.29L450.77,89.52,422.48,61.23ZM464.91,245.1a20,20,0,0,1-28.29,0L266.9,75.38a20,20,0,1,1,28.28-28.29L464.91,216.82A20,20,0,0,1,464.91,245.1Zm21.21-63.65L472,195.6,316.4,40l14.15-14.14a20,20,0,0,1,28.28,0l127.3,127.3A20,20,0,0,1,486.12,181.45Z"/></svg>