<svg id="Layer_1" data-name="Layer 1" xmlns="http://www.w3.org/2000/svg" viewBox="0 0 377.15 489.49"><defs><style>.cls-1{stroke:#1d1d1b;stroke-miterlimit:10;stroke-width:2px;}</style></defs><path class="cls-1" d="M175.61,355.87c18.27,43.91,35,87.9,48,133.24-5-12.35-10.16-24.67-15.06-37.07-13.38-33.87-26.46-67.86-40.12-101.61-3.52-8.69-8.81-16.66-13.18-25-1.84-3.52-4.38-5-8.38-4.13a52.92,52.92,0,0,1-7.06.62c-6.62,50.39-13.17,100.32-19.72,150.26L118.3,472c5.6-49.79,11.21-99.58,17-150.9-10,1-18.94,1.88-27.89,2.75-1.64.16-3.31.17-5,.41-.88.13-2.31.4-2.5.94-2.3,6.87-8.7,9-14.2,11.63S73.88,340.56,68.18,343c-3.84,1.64-7.19,4.42-11.4,7.09v77.27h-15V345.61c-7.64-3.3-15.28-6.83-23.11-9.88-5.16-2-6.63-5.75-6.93-10.78C11,311.87,10.3,298.77,9,285.74c-1.78-17.49-3.28-35.08-6.48-52.34-3.25-17.53-.66-34.33,2.76-51.27q9.24-45.76,18.6-91.49a12.07,12.07,0,0,1,2.09-5c-1.17,9-1.93,18.07-3.59,27-5.5,29.46-11.11,58.9-17.12,88.25-2.49,12.2-1.05,24.08.62,36.1,2.09,15.12,4.81,30.24,5.56,45.44,1,19.79,9.9,35.81,20.76,51.3A80.74,80.74,0,0,0,38.12,341c2,2.27,4.38,2.64,6.7.72L32,328.5l.46-.6c4,3.06,7.91,6.15,11.9,9.17,2.92,2.2,5.94,4.26,8.83,6.49,4.15,3.22,7.54,2.29,10.83-2L43.73,326.74l.6-1c3,1.78,5.87,3.6,8.84,5.33,19,11,14,11.64,35.34.88,3.39-1.71,6.23-4.49,9-7.56-5.23-1.86-10.12-2.21-15-.3-1.85.73-3.51,1.91-5.33,2.69-4.49,1.91-8.76,1.91-12.25-2.07-4-4.61-8.18-9.15-11.95-14-3.38-4.32-4-9.28-2.42-14.62,2.14-7.51,8.5-10.41,14.35-5.18,6.35,5.68,11.71,12.56,17,19.32,5.81,7.43,13.21,10.56,24.1,10.58-3.48-4.84-5.92-8.9-9-12.39-14-15.91-25.5-33.43-35.4-52.18a116.07,116.07,0,0,0-16.55-23.51c-10-11.07-11.75-23.17-7.87-36.92,6-21.31,15.39-41.24,25.06-61C74.29,110.27,87,86,95,59.71c2.07-6.8,3.88-13.69,5.33-20.65,1.57-7.52,7.35-11.21,13-15.12a19.22,19.22,0,0,0-2.82,3c-2.52,4.35-6,8.52-7.11,13.23-6.81,28.74-18,55.71-31.4,81.91C59.93,145.89,48.29,169.9,41.26,195.8a115.29,115.29,0,0,0-2.43,12.68c-1.42,9.25,3.62,16.3,9.39,22.13,10.92,11,16.21,25.28,24.21,38,8.29,13.14,18.15,25.3,27.47,37.79.7.94,2.54,1.44,3.86,1.45,10.46.12,20.93.07,31,.07,2-5.18.8-8.2-1.65-11.61-9.3-12.93-19.44-25.47-27-39.39C85,218,88.6,179.12,110.87,142c10.8-18,23.48-35,35.76-52.1,14.84-20.67,21.78-44,24.93-68.86.52-4.08.94-8.18,1.7-12.2,1.19,28.49-5.23,55-21.19,78.86,61-10.87,106.9,13.87,144.15,60.48,12.31-36.8,16.36-75,22.47-112.69.51,8.45.83,16.91,1.57,25.34a629.26,629.26,0,0,0,12.53,81.54c3.4,15.36,6.1,30.87,9,46.34,1.31,7,.74,14.2-2.82,20.35a88,88,0,0,0-10.05,26.81c-1.82,9-7.55,15.74-13.2,22.5-3,3.57-6.17,7-9,10.68a12.39,12.39,0,0,0-2.53,5.76c-.5,4.36,3.05,6.73,6.71,4.32a47.67,47.67,0,0,0,8.76-8c3.56-4,6.61-8.34,10.11-12.34,1.62-1.84,3.54-3.93,5.73-4.63,3.6-1.16,8.61-2.95,11-1.39s3.77,7,3.41,10.58c-1.29,12.66-9.72,20.28-20.54,25.48-1.51.73-4.34.13-5.87-.88-3.26-2.17-6.07-5-9.2-7.7l-6.79,5c5.39,5.31,10.38,10.76,16,15.44,1.58,1.3,5.87,1.44,7.51.22a247.54,247.54,0,0,0,24.53-20.17c2.77-2.68,3.51-7.72,4.63-11.84,11.28-41.69,14.66-84.2,13.57-127.25-.55-22.09-.09-44.21-.09-63.15.27,3.33,1.18,9.91,1.28,16.5.51,33.42,1.77,66.87.85,100.26-.73,26.86-6.58,53.24-13,79.35-1.4,5.7-4.13,10.3-9.08,13.73-7.5,5.2-14.73,10.76-22.12,16.1-3.22,2.32-6.59,2.37-9.58-.32-5.88-5.31-11.62-10.77-17.89-16.6-2.49.57-3.12,2.62-2.6,6,4.35,28.17,8.86,56.33,12.71,84.57,3.05,22.36,5.29,44.82,7.76,67.25a152.28,152.28,0,0,1,.64,15.85L302.93,317.17c-7.5,0-13.78-.06-20.07,0-2.82,0-5.69.8-8.45.48-15.73-1.84-29.24,3.55-42.83,10.95-17.54,9.55-35.94,17.5-54,26.15C177,355.05,176.49,355.39,175.61,355.87ZM273.5,293a39.18,39.18,0,0,0,3.48,4.56c.87.88,2.48,2,3.34,1.7a56.37,56.37,0,0,0,7.51-3.63c-2.13-3.52-4-6.65-6.38-10.52-2.17,3.81-8.24,2.31-7.8,8-4.82-1.73-7.21,2.26-11.08,3.89,1.62,2.21,2.64,5,3.93,5.11,3.51.36,7.14-.39,10.61-.69ZM160.41,306.05C190.47,305,218,304,245.59,303a11.59,11.59,0,0,0,5.07-1.62c13-7.53,25.94-15.33,39.09-22.67,3.55-2,4.64-4.17,3.67-7.84-6.14-23.17-11.53-46.57-18.62-69.45a80.42,80.42,0,0,0-27.74-40.5c-28.39-21.89-66.79-19-93.41,6.68-22.39,21.59-36.21,48.38-46.91,77.06-.58,1.55-.12,3.83.56,5.48,7,16.85,19.39,30,30,44.4C144.05,303.78,151.23,309.09,160.41,306.05Zm-56.53-63.69c2.15-5.43,3.81-9.93,5.71-14.34,11-25.68,24.66-49.63,46.54-67.91,29-24.26,69.81-23.6,97.78,1.67,11,9.93,18.5,22.26,24.11,36.44a23.68,23.68,0,0,0,1.36-2.55c5-13.49,10.12-26.94,14.83-40.53a7.72,7.72,0,0,0-1.37-6.45c-7.17-8.05-14.14-16.43-22.22-23.5C236.76,95.62,198,82.12,152.92,91.4a12.87,12.87,0,0,0-6.76,4.25c-4.94,6-9.5,12.38-14,18.74-16.92,23.77-32.33,48.28-36,78.13C94,209.54,97.77,225.71,103.88,242.36Zm194.27,31.48a65,65,0,0,0,5.5-5c3.56-4.15,6.62-8.77,10.46-12.63a44,44,0,0,0,11.18-19.08c3-10.28,5.12-20.88,11.19-30.06,1-1.58,1.32-3.71,1.79-5.63,2.47-9.93-.76-19.37-2.56-28.94-4.53-24.22-9.27-48.4-13.41-72.69-2.13-12.44-3.14-25.07-4.77-38.57-.54,4.5-.9,8.1-1.41,11.67-5.62,39.28-14.71,77.72-30.22,114.29-4.59,10.85-5.42,20.23-1.84,31.5C289.7,236.4,293.39,254.76,298.15,273.84Zm-140,47.23c4,7,7.56,13.31,11.48,20.19l46.35-20.95c-.17-.32-.33-.64-.49-1Zm158.51-43.54c7.77,11.17,10.47,11.57,19.93,3.62.89-.75,1.7-1.61,2.64-2.28,6.85-4.86,8.7-11.78,8.18-19.69-.3-4.45-2.39-6-6.6-4.78a8.14,8.14,0,0,0-3.59,1.65C330.2,263.19,323.35,270.46,316.61,277.53Zm-240,31.94,1.45-2.2c-5.37-4.66-10.58-9.51-16.22-13.82-1.26-1-4.69-.83-5.9.22-3.33,2.88-2.89,10.91.22,15.19,5.14,7.08,5.14,7.08,12.32,4.06Zm-64-2.1c.78,7.17,1.13,13.46,2.29,19.6a10.47,10.47,0,0,0,4.29,6.43c3.47,2.08,7.6,3,11.66,4.54C24.76,327.67,19,318,12.64,307.37Zm140,12.19L152,308l-10.21.47v11.12ZM43.22,365.94h12v-10.1h-12Zm11.56,47.72v-9.9H43.26v9.9Zm.08-12c.18-3.37.34-6.55.5-9.86H43.26v9.86Zm144.06-71.59-9.39,4.49c1.63,3.51,3.2,6.86,4.74,10.19C205.91,340.23,203.92,340.51,198.92,330.12Zm82.58-14.47,10.69-.52c-.34-4.14-.63-7.71-.95-11.62l-9.74.65ZM55,389.82v-10H43.23v10ZM55.09,378V367.89H43.26V378Zm215.37-62.67h9.46v-11H269.55C269.87,308.23,270.17,311.79,270.46,315.29Zm-14.14-10h-9.71v10.93h10.58C256.87,312.2,256.58,308.63,256.32,305.33Zm-20.73,11.11h9.47v-11.2H234.58C234.93,309.07,235.25,312.64,235.59,316.44Zm52.82-21.1c3.39-2.19,6.28-3.24,7.92-5.28,2.68-3.35-1.21-5.58-2.69-7.84-2.57-3.89-5.56-.8-7.41.92C280.72,288.27,288.84,290.56,288.41,295.34ZM54.71,425.65v-10H43.18v10ZM222.29,317.4c-.35-4.18-.65-7.62-.95-11.15H212V317.4Zm-68.48-9.25v11.21l10.31-.66V308.15Zm44.51-1.58-9.33.49c-.81,11.87-2,12.58,9.94,10C198.73,313.64,198.53,310.22,198.32,306.57Zm2.6,10.91h9.37V306.33C199.24,306.29,200,304.15,200.92,317.48Zm-35-9.82v10.88h9.36V307Zm48.89,27.45-4.92-9.83-9.56,4.34,4.82,9.86Zm-85.17-15.48h10.84l-.88-11.28-10,.62Zm57.54-1.2v-11H177.15c.24,4,.45,7.59.66,11Zm-69.6,1.65h10.8c-.34-3.93-.64-7.32-.93-10.71h-9.87Zm70.65,15.08c-1.93.8-3.55,1.42-5.12,2.14s-2.81,1.42-4.17,2.11c5,12.11,3.84,10.3,8.44,8.79C193.14,346.33,193.05,345.67,188.27,335.16Zm31.9-15.11c-9.49,4.34-9.5,4.34-4.52,13.44.22.4.73.64,1.08.93C226.09,329.59,226.09,329.59,220.17,320.05Zm13.2-14.63-9.73.58v11.21l9.73-.55Zm34.87,10.44V304.78h-9.52v11.08ZM55.15,353.72c1.86-5.9-2.92-7.09-6-8.93-1.22-.73-4.92.1-5.28,1-1,2.55-.73,5.55-1,8.45Zm238.44-50.45v11.41h9.86c-.82-4.06-1.58-7.8-2.32-11.41ZM79.07,310.93c-10.35,3.22-10.35,3.22-8.28,10.64H81.23C80.47,317.8,79.78,314.41,79.07,310.93Zm36.64-1.88-9.9.48c0,7.48,4,11.62,9.9,10.64Zm106.37,10.79,4.72,9.2c1.73-.74,3.36-1.35,4.91-2.13s2.91-1.71,4.35-2.57C232.79,317.88,232.79,317.88,222.08,319.84ZM177.58,340c-7.28,1.81-7.8,6.53-2.39,13l6.91-2.68Zm119.66-48-15.06,9.36H299C298.38,298,297.87,295.32,297.24,292Zm7.82-7.57-5.74-9.18-5.92,3.7,6,9.39Zm-40.4,18.18-3.17-4.87-8.58,4.87Zm-24.83,19.34-1-.78c-.14.24-.44.55-.37.69a3.89,3.89,0,0,0,.75.83Z"/></svg>