<svg id="Layer_1" data-name="Layer 1" xmlns="http://www.w3.org/2000/svg" viewBox="0 0 240.33 216.65"><path d="M175.65,216.65c-.62-1.73-1.77-3.46-1.76-5.18.09-13.46.41-26.92.65-40.38,0-2.31,0-4.63,0-7.14H134V137.47c3.46,0,6.9.09,10.33,0,9.14-.29,18.28-.54,27.39-1.16,1.65-.11,4.41-1.79,4.55-3,.8-7.05,1-14.17,1.38-21.62A549.86,549.86,0,0,1,53,112.16c.35,7.5.62,14.55,1,21.59.51,8.95,1.34,17.89,1.63,26.85.53,17,.83,33.9,1,50.85,0,1.72-1.12,3.44-1.72,5.16l-2.4-.53V166.56l-1.45-.05c-2.4,15.32-4.77,30.65-7.28,46-.22,1.34-1.37,2.54-2.09,3.8-.46-1.48-1.52-3.05-1.3-4.42,3.36-21.08,7.68-42,10-63.23,1.33-11.91-.5-24.18-.91-36.29l-38.2-8.08c-1.44,15.33-3.54,31.09-4.26,46.92C6.17,171.42,6.4,191.72,6,212c0,1.43-.85,2.85-1.31,4.27-.65-1.42-1.88-2.85-1.85-4.25.63-28,1.24-56.11,2.27-84.15.27-7.58,2-15.11,2.78-22.69.15-1.38-.65-3.59-1.73-4.25C1.6,98.08-.4,94.37.07,88.91.61,82.62.24,76.25,1,70c.32-2.6,2.21-5.26,4-7.33a11.88,11.88,0,0,1,5.62-3c15.52-4.33,29.69-12.72,45.9-15,4.52-.65,8.84-2.66,13.25-4.06,12.77-4,17.78-13.43,17.82-26.11,0-2.81-.52-5.61-.62-8.43-.06-1.92.2-3.86.31-5.79L88.89,0c.6,1.25,1.73,2.51,1.69,3.74-.2,7.6-.1,15.28-1.23,22.76-.9,5.88-4.85,10.29-10.18,13.44-9.87,5.83-20.74,8.93-31.84,10.5C31.25,52.71,22.9,62.26,19,77,49.43,89.13,165,91.31,208.4,77c-.09-11.07-10.24-22.46-22.19-25.31-9.48-2.26-19.11-4.19-28.23-7.5-16.56-6-21-12.63-20.86-33.9a26.09,26.09,0,0,1,.7-6.43c.34-1.27,1.54-2.31,2.36-3.46a15.5,15.5,0,0,1,1.16,3.78c.21,6.25-.12,12.54.43,18.76.6,6.76,4.29,12.24,10.58,14.57,10.49,3.88,21.38,6.69,32,10.23,5.27,1.76,10.33,4.13,15.47,6.24,1.36.55,2.67,1.22,4,1.74,4.94,1.88,10,3.46,14.81,5.64s7.39,5.7,6.93,11.43a150.43,150.43,0,0,0,0,16.45c.11,4-.44,7.41-3.83,10.22-2.4,2-.44,8.73,2.5,9.89,3.69,1.46,7.47,2.73,11,4.49,3.74,1.86,5.41,5,5.06,9.41a110.36,110.36,0,0,0-.47,15.94c.44,6.51-2.35,10.71-8.19,12.51-4.69,1.45-5.17,4.27-5.11,8.47.25,17.27.21,34.55.13,51.83,0,1.43-1.22,2.86-1.87,4.29-.46-1.41-1.31-2.82-1.32-4.23-.1-15.46,0-30.93-.1-46.39,0-3.29-.49-6.58-.73-9.65l-41,7.17c.7,4.72,1.45,9.85,2.23,15,1.73,11.45,3.55,22.9,5.14,34.37.17,1.18-1,2.53-1.5,3.8-.63-1.14-1.62-2.21-1.81-3.41-2.1-13.25-4.06-26.52-6.11-39.77a7.77,7.77,0,0,0-1.87-4v46.69Zm46-140.23c-7.06,2.19-13.83,4.15-20.48,6.46a4.78,4.78,0,0,0-2.41,3.48c-.32,3.7-.11,7.46-.11,11.19l-1.86.28c-4.17-3.35-.39-8.9-2.63-13.31l-10,1.57c-.5,3.15-.92,5.78-1.33,8.41l-2-.13-1.19-7.69-8.94,1.23c0,4.1.14,8.07-.08,12-.07,1.19-1.14,2.32-1.76,3.49-.64-1.15-1.77-2.27-1.85-3.46-.24-3.74-.08-7.5-.08-11.63l-11,.73c-.16,3.23-.29,5.82-.44,8.92-5.51-1.16-2.38-5.68-4.05-8h-10c-2,5.22,1.24,11-2,15.53l-1.82,0q-.41-7.38-.82-14.74H126c-.22,2.49-.42,4.67-.62,6.86l-1.89.39-2-7.09H110.78c0,3,.14,5.61,0,8.23-.15,2.18-.69,4.32-1.06,6.49l-2.25-.29V90.81H95.11l-3.06,7c-.52-2.09-1-4.19-1.56-6.28a5.49,5.49,0,0,0-.72-1.11L79,89.53c0,3.48.06,6.11,0,8.75-.06,2.42-.27,4.84-.42,7.26l-2.37,0c-.24-5.2-.48-10.39-.73-15.76l-9.19-1.1a26.43,26.43,0,0,1-.36,4.16c-.42,1.69-1.13,3.31-1.71,5-.5-1.74-1.09-3.47-1.47-5.23a33.31,33.31,0,0,1-.39-4.07L51,87.41c0,3.89.21,7-.08,10.15-.18,2-1.1,3.93-1.68,5.89a37.27,37.27,0,0,1-1.47-6.14c-.24-3.43-.06-6.89-.06-10.46L36.48,85.4c-.47,3.46-.86,6.26-1.24,9l-2-.15c-.27-3.16-.53-6.31-.76-9.09L4,76.27c0,2.59,0,5.4,0,8.21C3.88,96.25,4.44,97.05,15.74,101c.62.22,1.26.4,1.89.59,23.09,6.84,46.93,8.77,70.78,9.67,33.06,1.25,66.16.93,98.88-4.85,9.7-1.71,19.19-4.86,28.57-8,2.33-.77,5.16-3.76,5.52-6.08C222.2,87.05,221.64,81.54,221.64,76.42Zm-53,63.68a37.63,37.63,0,0,1-.08,5.66c-.15.92-1.05,1.71-1.61,2.56-.61-.81-1.57-1.56-1.77-2.47a38.16,38.16,0,0,1-.42-5.48l-8.93.47v21c18.11-2.38,35.53-4.31,52.82-7.11,7.42-1.2,14.69-3.82,21.72-6.58a10.5,10.5,0,0,0,5.67-6.57c.92-4.57.26-9.46.26-13.89l-24.7,7.78c0,2.81.16,5.8-.07,8.75-.12,1.41-1,2.75-1.52,4.13-.64-1.45-1.66-2.87-1.83-4.37a81.3,81.3,0,0,1-.08-8.44L199,137.08l-.73,5.26-1.42.62c-1-1.77-1.92-3.55-2.86-5.34L184.11,139c-1.51,4.61,1.22,9.45-1.77,13.27l-1.72,0c-.3-4.1-.6-8.21-.94-12.84Zm48.85-36.75c-11.44,2.5-22.22,4.79-33,7.31-1.21.28-2.9,1.79-3,2.89-.83,7.17-1.28,14.39-1.94,22.56l41.48-6.55C219.8,120.11,218.63,111.49,217.52,103.35Zm-80.64,37.86c0,6-.07,11.49.06,16.95,0,1,.83,2.68,1.34,2.71,4.46.21,8.94.12,13.24.12V141.21ZM22.41,59.47C18.82,60.66,15.22,61.4,12.07,63c-2.82,1.44-5.15,3.83-7.7,5.8a104,104,0,0,0,8.23,6.47c.57.37,2.88-.65,3.34-1.57C18.23,69.21,20.16,64.53,22.41,59.47ZM237,121.64c0-.82.05-1.65.07-2.47l-14.75-7.44c.93,6.25,1.63,11,2.47,16.69Zm-23.79-45.8c2.57-1.6,5.07-2.72,6.91-4.51.78-.76.78-3.91.12-4.32-4.18-2.58-8.65-4.69-13-7-.19.4-.37.79-.56,1.18Z"/><path d="M115.88,140.74c1.05,1.33,2.56,2.34,2.57,3.36q.19,29.58,0,59.16c0,1-1.22,2-1.88,2.93-.59-1-1.7-2-1.71-3-.07-20.21,0-40.43,0-60.64C114.9,142.25,115.19,142,115.88,140.74Z"/></svg>