<svg id="Layer_1" data-name="Layer 1" xmlns="http://www.w3.org/2000/svg" viewBox="0 0 1115.14 1001.81"><path d="M40.8,475.74c-10.39-8.2-20.15-15.72-29.69-23.5-7.1-5.79-8.88-14-9.21-22.61Q1,405.27.09,380.93c-.11-3-.13-6,0-9,.62-16.46.79-33,2.14-49.36.83-9.94,5.32-18.5,12.5-26.11,16-17,36.15-26.31,57.7-32.71,18.81-5.6,38.24-9.16,57.36-13.74a18.37,18.37,0,0,0,6.18-2.83c5.21-3.72,10.21-7.72,15.34-11.55s10.71-6.51,17.31-6.58c2.22,0,3.89-.72,1.57-4.42L189.69,222a14.64,14.64,0,0,0,1.49,0c8.4-2.12,16.78-4.3,25.18-6.41,19.12-4.8,38.12-10.26,57.45-14,6.82-1.32,12.3-5,18.91-6.57,13.1-3.06,26.33-6.73,38.51-12.32,17.56-8.05,36.23-14.94,49.47-30.09,11.85-13.57,18-29.87,21.37-47.44,3.8-19.6,2.41-39.3,2.64-59,.14-12.09-2.84-23.49-3.55-35.27A9.88,9.88,0,0,1,409.91.11c6-.71,9.71,2.27,10.68,8.29,1.94,12,4.11,23.93,5.85,35.94.38,2.63-.91,5.46-.93,8.2,0,6,.36,12.07.37,18.1,0,7.75,1.94,16.4-.87,23-2.55,6-.77,11.75-3.11,17.31-2.41,5.72-3.42,12-5.3,18-2.18,6.88-3.45,14.46-7.3,20.3-4.65,7.06-7.78,15.24-13.92,21.22-5.13,5-10.67,9.61-16.26,14.1-1.15.93-3.34.57-5.06.81a6.83,6.83,0,0,0-2.62.44c-2.21,1.4-4.28,3-7.14,5.08l5,.39c-2.19,1.14-4,2.73-5.92,2.95-8.41.92-15.15,5-21.38,10.33a66.08,66.08,0,0,1-6.51,4.75c-.6.39-1.91.6-2.32.24-3.88-3.4-5.51-.41-7.64,2.26-1,1.28-3,2.73-4.41,2.6-11.09-1.05-20.1,5.3-30.11,8-1.26.34-2.49.8-3.77,1.21-1.55-4.5-4.53-3.19-6.68-1.17-4.77,4.48-9.59,7.64-16.61,5.52-1.46-.44-3.68.94-5.33,1.86-8.76,4.88-18.76,3.68-28.1,5.74a248,248,0,0,1-28.16,4.57c-10.08,1-18.91,5.48-28.16,8.89-4.12,1.52-8.41,2.62-12.49,4.25-1.67.68-3,2.27-4.47,3.42-5.16,4-11.7,6.39-14.67,12.91a4.17,4.17,0,0,1-2.21,1.94C131.59,274.63,127,281.92,122,289c-14.27,20-22.68,42.86-31.4,65.55a13.46,13.46,0,0,0-.27,2.37c9.9,2.71,19.77,6,29.89,8.07,26.39,5.52,52.84,10.82,79.37,15.67,11.72,2.15,23.67,3,35.51,4.43,12,1.44,24,2.94,36,4.28,9.24,1,18.49,2,27.76,2.69,18.39,1.38,36.79,2.74,55.2,3.77,13.91.77,27.86.92,41.78,1.57,4.44.21,8.84,1.55,13.28,1.68,16.57.5,33.15.79,49.72,1,12.83.17,25.67-.1,38.49.23,15.44.38,30.87,1.54,46.31,1.68,10.07.08,20.15-1.26,30.23-1.58,5.37-.17,10.79.93,16.14.64,11.73-.65,23.43-2.16,35.17-2.65,8.09-.34,16.26,1,24.33.58,13.91-.78,27.76-2.48,41.64-3.63,11.36-.95,22.75-1.64,34.12-2.49,3.81-.28,7.63-.58,11.42-1.1,3-.41,5.49-1,8.71.84,2.31,1.33,6.39-.3,9.66-.75,11-1.53,21.91-3.3,32.9-4.67,16.58-2.06,33.26-3.49,49.79-5.91,13-1.9,25.81-6.49,38.81-6.92,11.3-.37,20.85-5.48,31.47-7.21,12-2,24-4.19,35.77-7.14,8.26-2.06,16.16-5.53,24.88-8.61-4.72-11.15-9-21.91-13.79-32.39-6.55-14.19-13.59-28.15-24.41-39.75-6.45-6.91-12.87-13.8-21.61-18.09-5.59-2.75-10.57-6.78-16.25-9.28s-11.82-3.62-17.69-5.58c-3.89-1.3-7.59-3.18-11.49-4.43-1.32-.42-3,.45-4.54.5A17,17,0,0,1,854,242c-12.22-3.34-24.28-7.38-36.64-10-11.5-2.49-23.5-2.72-34.9-5.49-9.63-2.34-18.71-6.91-28-10.47a3.88,3.88,0,0,0-1.91-.45c-7.38,1.4-13.06-3.08-19.14-5.79-9.63-4.29-19.13-8.95-28.45-13.9-13.09-6.94-26.18-14.13-36.29-25.24-10.67-11.72-19-24.67-23.74-40.32a234.12,234.12,0,0,1-9.19-47.19c-.93-10.36-.81-20.83-.77-31.25,0-8.15.5-16.32,1.11-24.45a185,185,0,0,1,2.36-19.22C639.48,2.2,644-.62,650.1.11c5,.6,7.7,3.73,7.47,10s-1.4,12.48-1.77,18.75c-.27,4.57.1,9.17.13,13.76,0,1.92.27,4-.29,5.73-3.55,11.12.37,21.85,1.21,32.76.36,4.67,2.65,9.59-.25,14.32a3.55,3.55,0,0,0,.11,2.45c3.62,12.13,7.1,24.3,11.07,36.31.92,2.78,4.11,4.74,5.35,7.49,2.92,6.51,8.11,11.16,13.25,15.43,5.69,4.71,12.6,7.94,18.94,11.87,2.73,1.68,7,1,7.36,6.41.09,1.51,5.45,2.68,8.93,3l-3.8-3.44.51-.75c3.61,2.57,7.44,4.87,10.77,7.76,4.6,4,10.31,4.49,15.79,5.66,2.7.58,5.58.27,8.29.78.72.13.93,2.18,1.77,2.71,1.85,1.17,5,3.27,5.79,2.64,5.49-4.25,9,1.12,12.32,3,3.61,2,6.44,4.47,11,4.5,4.39,0,8.78,1.31,13.15,2.13.77.14,2,.59,2.12,1.1,1.28,5.52,4.15,4.61,8.46,3.16a13.76,13.76,0,0,1,10,1c4.67,2.62,9.39,3.37,14.47,3.55,4.31.16,8.71-.35,12.22,3.48,1,1.08,3.86.17,5.73.71,11.2,3.2,22.48,6.21,33.5,10,9,3.08,17.81,6.91,26.51,10.84a23.61,23.61,0,0,1,8.45,6.32c3.74,4.64,8.82,6.16,14,7.64,9,2.55,18.74,3.67,26.92,7.85,4.48,2.29,8.49,6,13.73,7.09,4.72.95,9.58,1.17,14.28,2.15,3.69.77,7.66,1.53,10.79,3.46,12.88,8,25.83,15.93,38.08,24.82,8.82,6.4,12.94,15.73,11.45,27.06a32.66,32.66,0,0,0,.29,7.44c.39,3.76.21,6.93-2,10.61-1.9,3.12-2.06,8.31-1,12,3.39,11.69,3.55,23.3,2.62,35.34-.88,11.47.31,23.1.32,34.65a93.92,93.92,0,0,1-1.13,16.26c-.4,2.29-3.17,4.05-4.36,6.32a48.35,48.35,0,0,1-16.14,17.59c-3.18,2.18-2.81,5.4-2.11,8.53,1,4.35,2.14,8.67,3.24,13,1.19,4.71,2.27,9.46,3.69,14.11a5.12,5.12,0,0,0,2.8,2.9c6.17,2.19,12.55,3.81,18.63,6.19,10.92,4.26,21.83,8.62,32.46,13.57,5,2.34,9.4,6.1,14.07,9.22,9.07,6.07,12.34,15.85,15,25.48,1.52,5.6.44,11.92.44,17.91,0,11.21.46,22.45-.23,33.62-.63,10.29.3,20.43.6,30.64.27,9.61-.49,19.24-.8,28.9-6.27,1.49-3.5,8.37-7.46,11.36l1.08.81,3.1-2.39.82,1c-4,3.46-7.86,7-11.9,10.36-7,5.82-14,11.64-21.12,17.21-1.31,1-3.54.82-5.32,1.27s-4.91.53-5.45,1.69c-3,6.39-9,5.51-14.07,6-2.85.27-3.21.41-2.86,3.25.39,3.23-.67,6.63-.42,9.9.4,5.13,2.41,10.33,1.88,15.31-.82,7.79,1.6,15.38.36,23.13-.39,2.4,1.06,5.05,1.3,7.62.5,5.49.77,11,1.11,16.51.12,1.9.22,3.81.18,5.71,0,2.66,3.56,6-1.42,8-.41.17.32,3.17.58,5.35l3.1-2.71c-1.16,4.2-3,7.74-2.84,11.19s2.29,6.83,3.56,10.25c-4.24,2-3.53,4.09.51,6.2-1.08,2.39-2.16,4.56-3,6.82a9,9,0,0,0-.54,3.54c.2,3.83,4.74,8.22-1.53,11.26a5.71,5.71,0,0,0,1,2.77c2.21,2.57,3.83,5,1.07,8.26a3.23,3.23,0,0,0-.44,2.78c2.78,6.71-.23,13-.93,19.5-.84,7.73-.11,15.62-.07,23.44,0,1.16,0,2.33,0,3.48-1.82,24.69-2.86,49.41-3.91,74.13-.27,6.47-3.86,10.27-9.17,10.19-5-.06-7.76-3.68-7.72-10.45.07-14.79.52-29.58.28-44.36-.17-10.9-1.32-21.79-1.7-32.69-.1-2.82,1.08-5.68,1.69-8.59-6-1.79-1.37-6.14-1.53-9.12-.26-4.88,1.76-9.9,1.41-14.76-.86-11.86-5.32-23.58-.86-35.56-4.4-11.57,2.28-23.38-.73-35-.7-2.71.28-5.81.26-8.73-.11-18.43-.16-36.85-.51-55.27-.14-7.58-1-15.14-1.45-21.7-3.23-.69-5.89-1.6-8.6-1.72-2-.09-4.8.16-6,1.44-5,5.24-10.81,6.54-17.84,6.36-4.2-.1-8.47,2.17-12.69,3.42s-8,3.51-12.89,1.86c-2.2-.74-5.22,1.29-7.92,1.65-12,1.64-24,2.94-36,4.73-11.71,1.76-23.33,4.18-35,5.86-4.09.59-8.4-.54-12.53-.14s-8.39,2.09-12.64,2.56c-8.4.91-16.84,1.36-26.31,2.09,2,8.66,4.67,16.7,5.48,24.92.74,7.6,3,15,3.12,22.64,0,1.63,1.69,3.18,2,4.88.9,4.93,1.25,10,2.33,14.87.62,2.82,2.23,5.43,3,7.15-.68,2.5-1.18,4.16-1.46,5.85a27.91,27.91,0,0,0,3.18,1c-2.79,6.11-.59,11.9,3.9,16.78-1.1.93-2.79,2-2.66,2.32.53,1.36,1.63,2.49,3,4.39-1.12,3.3-2.63,7.72.44,12.47.84,1.3-.81,4.22-1.54,7.34,2.09,1.72,5.58,4.32,2.84,9.17-.16.28.2,1,.46,1.37,3.41,5.27,1.1,11,1.5,16.51.48,6.76,1.84,13.46,2.87,20.17.24,1.62.95,3.2,1,4.81.53,16.16,3.4,32.11,4.28,48.23.27,4.77,1.08,9.51,1.72,14.25a9.26,9.26,0,0,1-7.17,9.87c-4.54.81-8.48-1.78-9.3-6.76-1.82-11-3.22-22-5-32.95-1.57-9.86-3.07-19.76-5.24-29.51-1-4.58-4.29-8.73-1.8-12.91-1.24-1.54-2.76-2.56-2.83-3.66-.3-5.51.35-11.13-.45-16.54-.68-4.69-3.05-9.11-4.31-13.74A64.49,64.49,0,0,1,839.14,874c-.95-11.51-2.47-23-3.86-34.41q-2.61-21.36-5.33-42.69a8.69,8.69,0,0,0-2.41-4.69,18.33,18.33,0,0,0-.7,4c.31,6.79.76,13.58,1.16,20.37.23,3.9.5,7.79.62,11.69,0,.61-.7,1.21-1,1.85-.73,1.49-1.42,3-2.12,4.51l1.38.71,2.29-1.85c-3.82,6.34-3.6,12.48.46,18.4-1.35,1.41-5.62,1.68-1.46,4.6.58.4,1,2.26.61,2.66-4.41,4.73-1.65,10.07-1.31,15.36-4.22.79-5.28,2.4-1.58,5.46.86.71,1.75,2.9,1.39,3.32-2.87,3.27-.88,6.53-.64,9.91a24.24,24.24,0,0,1-1.22,9.33c-2.65,7.87-2.37,15.72-.82,23.68a8.31,8.31,0,0,1,0,2.49c-2.29,21-.82,42.05-.94,63.08a12.27,12.27,0,0,1-.86,5.26c-1.83,3.62-5.08,5.42-9.08,4.58a8,8,0,0,1-6.56-7.8c-.85-12.78-1.43-25.57-2.18-38.36-.2-3.3-.75-6.58-1-9.88-.32-4.93-.48-9.88-.74-14.81-.2-3.92-.45-7.84-.69-11.75l1.48-.47L801,917c3.35-11.44,2.74-22.92.54-34.65-.92-4.87,1-10.26,1.51-15.41a9.81,9.81,0,0,0-.06-2.54c-.24-1.53-1-3.08-.86-4.56,1.22-14.4,2.68-28.78,3.83-43.19.61-7.6.82-15.24,1.09-22.86q.59-16.59,1-33.17a37.74,37.74,0,0,0-.58-5.11c-12.7.92-25,1.83-37.39,2.71q-11.18.8-22.37,1.53c-10.77.68-21.53,1.57-32.3,1.92-10.27.33-20.55.11-30.83.11q-27.74,0-55.46,0c-7.77,0-10.18-2.85-10.2-10.64,0-10.64-.57-21.27-.72-31.91-.07-4.81.43-9.63.43-14.45,0-6.3-.28-12.59-.33-18.89q-.16-20.49-.2-41c0-7,3.57-10.72,10.58-10.78,9.5-.09,19,.23,28.49,0,8.63-.24,17.25-1,25.87-1.58a16.72,16.72,0,0,1,2-.18c8.68.52,17.35,1.26,26,1.5,2.89.08,5.79-1.28,8.72-1.62,10-1.17,20-2.7,30.09-.16,1.34.34,2.93-.15,4.34-.48.23,0,.16-1.33.27-2.44L816,627.41V597.52l-1.82-.36a34.16,34.16,0,0,0,1.39-18.33c-1.25-6.23,1.83-13.28,2.64-20,1.41-11.76,2.55-23.54,3.79-35.31.45-4.29-.73-5.59-5.64-5-20.93,2.46-41.91,4.48-62.9,6.27-18.68,1.59-37.38,3-56.09,3.92-34.38,1.64-68.77,3.5-103.17,4.06-45.63.76-91.27.5-136.9.37q-26.94-.07-53.88-1.48c-25.39-1.29-50.77-3-76.13-4.8-17.57-1.21-35.12-2.64-52.66-4.17-8.21-.72-16.37-1.92-24.42-2.88-2.89,6.27-.47,11.89.47,17.65.46,2.88-.61,6-.43,8.93.32,5.19,1,10.36,1.65,15.53.83,6.87,3.66,14.24,2,20.47-1.76,6.81,1.31,12.41.87,18.61a180.68,180.68,0,0,0,.08,20.42c.12,2.74,1.44,5.4,1.74,8.15.22,2-.34,4.15-.52,6.24a7.18,7.18,0,0,0,0,1.91c1,5.23,2.4,10.41,3.05,15.69a187.09,187.09,0,0,1,1.5,20.34c.05,3.33-1.27,6.67-1.84,10-.11.68.39,1.46,1.51,2.27.39-1.5.78-3,1.16-4.49l.86.17c-.58,4.42-.63,9-1.87,13.24-1.54,5.24.51,9.6,1.94,14.23a48.74,48.74,0,0,1,2.05,7.08c.13.86-1.2,1.94-1.86,2.92l-1.81.12c1.14,2,2.63,4,3.3,6.16.59,2,1.08,4.62.23,6.23-4.36,8.27-.37,16.45-.19,24.63,0,2,1.53,4-1.83,4.83-.53.14-1,4.34-.08,5.54,3.44,4.37,3.76,8.6,2.14,13.84-.89,2.88-.24,6.57.67,9.61,2.39,7.89-.74,15.56-.36,23.36.21,4.31-.77,8.66-.83,13q-.14,9.69.33,19.37c.26,5.24,1.27,10.45,1.36,15.68.08,4.53-.85,9.06-1,13.6-.05,2.5,1,5,1,7.53-.12,10.38-.61,20.76-.7,31.15-.17,19.23-.09,38.47-.28,57.7-.07,7.48-.53,15-.93,22.44-.21,3.87-3.94,7.63-7.78,7.67-4,.05-7.1-1.71-8.19-5.84a21.36,21.36,0,0,1-.64-5.41c0-28.77.07-57.54-.16-86.31,0-6.93-1.31-13.84-1.86-20.77-.73-9.12-1.5-18.25-1.86-27.39a59.42,59.42,0,0,1,1.18-11.31c.3-1.9,1.64-3.79-1.59-4.43-.42-.08-.9-1.54-.82-2.31.51-4.83,1.42-9.63,1.71-14.47.17-2.93-.72-5.9-.83-8.86-.24-6.12-.23-12.26-.44-18.38,0-.84-.78-1.64-1.36-2.8-5.65,6.23-2.61,12.69-1.83,19.07-2.18,1.1-6.37,1.57-1.89,5.35a2.72,2.72,0,0,1,.11,2.65c-4.91,4.68-3.72,11-4.76,16.69-.25,1.37-1.85,2.46-2.44,3.84s-1.11,3-.61,4c1.54,3.1,2.86,5.88-.21,8.83a3.52,3.52,0,0,0-1,2.67c1.76,8.8-3.16,16.17-4.93,24.21-1.65,7.51-2.52,15.19-3.77,22.79-.6,3.66-1.2,7.31-1.91,10.95-1.13,5.84-2.49,11.64-3.49,17.5-1,6.14-1.65,12.36-2.65,18.51-2.07,12.71-4.29,25.4-6.42,38.1-.27,1.64-.34,3.3-.57,4.94-.69,4.93-5,8.59-9.61,8.24-4-.3-7.43-4.44-7-9.35.92-10.06,2.31-20.07,3.42-30.1,1.24-11.19,2.33-22.4,3.6-33.59.56-4.9,1.45-9.76,2.1-14.64.23-1.73.11-3.5.35-5.23.63-4.6,1.38-9.18,2-13a63.85,63.85,0,0,1-.28-7.22c.2-2.62.82-5.2,1.21-7.56l1,2.42c1.12-5.85,2.4-10.92,3-16.07,1.33-11.24,0-22.69,3.52-33.81,2.16-6.87,3.11-14.13,4.44-21.25s2.34-14.58,3.81-21.82c1.39-6.89,3.44-13.65,4.79-20.55q4.23-21.63,8-43.36c1.9-11.08,2.25-22.58,5.4-33.27,4.3-14.6,1.74-29.18,2.09-43.72.35-14.22-1.46-28.49-2.31-42.74-.7-11.61-1.26-23.23-2.1-34.83-.74-10.4-1.85-20.76-2.66-31.15q-.75-9.75-1.06-19.54c-.08-2.5-.89-3.29-3.42-3.63q-23.59-3.24-47.11-6.88c-16.49-2.57-33-5-49.38-8.21-6.44-1.25-12.54-4.31-18.8-6.5-3-1.05-6.1-3.27-9,.4-.3.38-1.87-.11-2.79-.41C87,492.55,76.28,489,65.6,485.29c-1.39-.49-2.48-1.83-4.82-3.61-.79,3.51-1.88,6.62-2.13,9.79-.49,6.14.15,12.16-3.22,18.1-2,3.54-1.31,8.66-1.63,13.08-.5,6.89-.61,13.82-1.35,20.68-.32,2.87-2.23,5.56-2.7,8.45s.17,6.11-.16,9.12c-1,9.18-2.27,18.34-3.38,27.51a27,27,0,0,0-.28,5.88c.38,3.77,2.19,7.56-1.07,11-.5.53-.25,1.95-.08,2.91a52.84,52.84,0,0,1-.89,20.6c-1,4.56.43,9.59.24,14.39-.08,2.11-1.72,4.1-2.24,6.25-.73,3-1.08,6.2-1.75,10.21l3.49-1.91c-.09,1.64.28,3.34-.32,4.55-3.66,7.35-4.38,14.76-1.62,22.59.82,2.3.8,5,.88,7.44,0,.86-.84,1.74-1.29,2.62L39,694.77c.86,2.48,2.26,4.93,2.44,7.46.21,3.17.45,7.13-1.16,9.48-3.36,4.92-2.25,9.83-2,14.91.19,3.31.25,6.63.23,10,0,.92-.2,2.42-.76,2.68-4.65,2.18-3.27,4.94-1.56,8.47A16.59,16.59,0,0,1,37,760.56c-1.45,4.74,0,10.31-.16,15.52-.06,2.5-.83,5-1.09,7.49s.07,4.84-.4,7.16c-3,14.89-1.92,30-2.94,45-.49,7.28.17,14.64.31,22a3.33,3.33,0,0,1,0,1c-2.74,9.34,0,18.84-.72,28.34-1.38,18.64-.53,37.45-.42,56.19.11,16.13.47,32.26.74,48.39.08,5.28-3.52,9.65-8.35,10.06-4.37.37-7.74-2.83-8.21-8.48-.52-6.29-.64-12.62-.8-18.94-.7-28.62-1.26-57.25-2.07-85.87-.45-15.93-1.35-31.85-1.91-47.78-.08-2.44.8-4.89.84-7.34,0-4-.41-7.92-.31-11.87.12-4.28.61-8.55,1-12.83.08-1,.35-2,.35-2.93,0-4.22-.08-8.43-.15-12.64-.28-15.23-1-30.47-.67-45.69.19-8.67,2.39-17.27,3.13-26,.32-3.74-1.4-7.66-1.08-11.4,1.25-14.85,3-29.66,4.42-44.5,1-10.26,1.43-20.57,2.51-30.82,1.79-17,4-33.94,5.83-50.92,1.49-13.35,2.67-26.73,4.23-40.08,1.38-11.82,3-23.61,4.67-35.39C37.39,497.12,39.22,486,40.8,475.74ZM26.66,352.87c-.7,16.09-1.38,31.29-2,46.49-.28,6.66-.12,13.35-.78,20C22.6,431.77,25.16,441.7,38,447.25c8,3.46,15.3,8.51,23.14,12.4,4,2,8.38,3.06,12.65,4.32,19.69,5.76,39.22,12.17,59.14,16.94,18.17,4.36,36.72,7.2,55.19,10.2,24.19,3.92,48.41,7.74,72.72,10.84,18.6,2.37,37.33,3.79,56,5.2,24.87,1.87,49.76,3.37,74.64,4.93,7.78.49,15.58.54,23.35,1S430.28,514.78,438,515c11.26.28,22.54-.2,33.82-.1,30.94.28,61.88.8,92.83,1,9.12.06,18.25-.6,27.37-1q15.88-.71,31.75-1.54c7.26-.37,14.73-2.07,21.73-.9,11.46,1.92,22.62.12,33.82-.67,19.16-1.37,38.24-3.94,57.39-5.48,3.9-.31,8.21-3.4,12.28.65.9.89,3.81-.14,5.78-.43,7.51-1.14,15-2.56,22.53-3.47,11.36-1.37,22.82-2,34.14-3.67,17-2.47,34-5.17,50.81-8.48,7.73-1.52,15.48-2.15,23.22-3.21,6.31-.87,12.27-4,18.54-5.46,10.71-2.49,21.68-4,32.29-6.81,10.34-2.79,20.3-7,30.56-10.15,5.4-1.65,10-4.53,16.74-4,6.31.48,13.1-5.4,19.68-8.48-.21-.46-.41-.93-.62-1.39l-6.82,1.88c5.47-3.09,9.65-6.22,14.35-7.95,7.36-2.69,13.28-7.08,13.79-14.85.56-8.6-1-17.33-1.6-26-.18-2.78,0-5.58-.24-8.35-.46-5.56-1.09-11.11-1.64-16.67l1-.2,1.38,2.9a7.93,7.93,0,0,0,1.1-5.37c-1-7.57-2.2-15.12-3.33-22.74-5.28,2.29-10.28,4.61-15.41,6.63-12.92,5.11-25.73,10.54-38.89,14.94-10.34,3.46-21.15,5.51-31.72,8.33-3.5.93-7.19,1.79-10.25,3.6-4.54,2.7.58,6.29-.13,9.58a23.73,23.73,0,0,0,1,13.12c.57,1.61-1.6,4.18-2.26,5.69.38,1.56,1.1,2.9.92,4.11-.55,3.65-1.78,7.23-2.12,10.89-.43,4.52.07,9.13-.37,13.64-.52,5.36-4.19,8.85-8.87,9.18s-8.42-2-8.78-6.22c-.67-7.85-4.64-15.42-2.28-23.56a3.62,3.62,0,0,0-.55-2.74c-3.18-4.49-.73-9-.27-13.53.5-4.85,1-9.69,1.55-15.61l-46.76,6.53c.49,3.84.85,6.63,1.27,9.87-1.48,1.12-1.93,3.16-1.38,5.35.3,1.21-.36,2.66-.62,4-.38,2.06-1.19,4.13-1.11,6.17.22,5.54-3.37,11-8.6,12.37-3.6,1-9.27-1.25-10.45-4.93-2.51-7.81-4.37-15.82-3.13-24.18.21-1.37.33-2.75.56-4.79L793.36,407c.55,6.11,1.07,11.9,1.69,18.71l-1.21,1.59a19.72,19.72,0,0,1,1.81,1.28,16.13,16.13,0,0,1,1.3,1.49l-2.44,1.38,1.64.66c-.43,2.22-.81,4.18-1.21,6.26l-2.74.82c3.35,1.84,3.84,5.32,2.18,8.59a17.66,17.66,0,0,0-1.93,6.39c-.46,5.87-.31,11.79-.89,17.64-.44,4.46-3.49,7.14-7.84,7.82-4.59.71-8.4-1.72-9.29-5.83-1.36-6.32-1.3-12.94-2-19.41-.08-.63-1.48-1.1-1.43-1.07.26-3.38,1.57-6.77.48-9-2.55-5.12-.47-9.73,0-14.56.66-6.93,1.21-13.86,1.84-21.16l-48,4.58c.31,3.93.6,7.51.87,11.09a6.57,6.57,0,0,1,0,2.12c-.39,1.42-1.23,2.76-1.41,4.19-.2,1.65.29,3.39.13,5.05s-.85,3-1.11,4.54c-.45,2.65.12,6.06-1.34,7.82-2.1,2.53-5.51,5.05-8.59,5.36-2.62.26-6.71-1.89-8.14-4.22-3.89-6.34-3.52-14-4-21.15-.27-4.51,1.37-9.14,2.22-14.16-1.71,0-2.85-.06-4,0-9.39.62-18.77,1.29-28.15,1.9q-6.22.4-12.45.68c-3.89.17-5.06,2.42-3.44,5.53,2,3.79,1.1,8.14,1.2,11.7.09,3.27,2.53,7.42-.35,10.87-.77.91-1,2.3-1.49,3.62,1.78,1.34,2.35,4.78,1.24,7.61a25.54,25.54,0,0,0-1.84,7c-.54,6.09-.4,12.26-1.2,18.32a8,8,0,0,1-8.83,7.12c-3-.3-7.88-3.52-8.06-5.75-.68-8.5-4.18-16.75-2.64-25.46.25-1.4.46-3.37-.29-4.27-3.61-4.35-.76-8.86-.52-13.19.38-7.14,1.5-14.24,2.28-21.08H586.74c.42,4.28,5.08,8.25-1.23,11.37,3.44,1.42,3.62,3.24,1.33,5.84-.92,1-.9,3-1.13,4.5-.38,2.48-.19,5.14-1,7.43-1.48,4.1-4.89,6.7-9.15,6a13.87,13.87,0,0,1-7.91-4.72c-1.8-2.31-2.27-5.81-2.86-8.88-.42-2.17.81-5.08-.23-6.6-2.36-3.43-1.09-6.44-.14-9.56.9-3,.52-4.29-3-4.24q-20,.27-40,.11c-3.83,0-4.5,1.49-3.53,4.85.78,2.71,1.82,5.65,1.43,8.29a19.39,19.39,0,0,0,.27,6.88c.58,3.07-.72,6.5-1.33,10.62,1.7,1.44,1.2,4.4-.05,7.6a22.14,22.14,0,0,0-1.47,6c-.49,5.71-.49,11.47-1.16,17.15a7.9,7.9,0,0,1-8.79,7.1c-3-.27-7.88-3.44-8.13-5.75-.9-8.06-4.15-15.92-2.68-24.24.23-1.26.53-3.06-.13-3.85-3.65-4.4-.81-9-.53-13.38.42-6.94,1.42-13.84,2.26-21.56H440.06c2.24,6.63,2.09,8.81.43,9.47,0,2.5.12,4.56,0,6.58s-1,4-.84,5.9c.6,7-5.44,13.33-12.23,12.28-5.45-.83-7.43-5.12-8.36-9.79-.69-3.45.34-7.55-1.15-10.47-1.73-3.39-.75-6.12-.37-9.16.25-2,.53-4.06.81-6.25-15.1-.73-29.54-1.41-44-2.12-3.92-.2-3.83,2.62-3.6,5.07.28,2.79,1.32,5.5,1.61,8.29.12,1.09-.89,2.3-1.46,3.62l1.28.2c.39,3.05.74,5.82,1.16,9.14l-2,1.11c.59,1.14,1.11,2.12,1.66,3.16l-3.95,1.06c4.56,2.5,3.83,5.59,2.49,8.87a13.3,13.3,0,0,0-1.08,4c-.41,5.54-.62,11.1-1,16.65-.47,7-4.59,11.79-9.82,11.63-4.93-.15-8.48-5.16-8.68-12.13,0-1.46-.47-2.9-.59-4.37-.42-5.06-.78-10.12-1.15-15.19-.08-1.07.31-2.37-.16-3.17-2.91-4.88-1-9.76-.45-14.73.94-8,1.47-16.1,2.2-24.49l-40.21-2.65c.73,4.63,1.4,8.81,2.07,13l1.24-.12q-1.83,2.56-3.67,5.11c2.54,1.25,2.43,3.18,1.07,5.62a15.74,15.74,0,0,0-1.51,4.68c-.51,2.65.06,6.06-1.41,7.83-2.1,2.53-5.5,5-8.57,5.37-2.56.27-6.15-2.07-8-4.31s-2.42-5.82-3-8.91c-.47-2.34.81-5.56-.37-7.11-2.51-3.3-.67-6-.22-9,.69-4.59,1.41-9.17,2.1-13.69l-49.15-5.25c.61,6.58,1.19,12.76,1.79,19.24l1,.05c-.7,1-1.34,1.87-2,2.79l4,3-3.94,1.18,2.7.93-3.52,7.39c3.5,2,1.89,5.16,1.08,8.16-.59,2.15-1.52,4.28-1.7,6.46-.51,6-.35,12.15-1.13,18.15-.55,4.17-3.85,6.57-7.92,7.2s-8.06-1.38-8.7-5.08c-1.45-8.33-4.51-16.57-2.93-25.31a19.36,19.36,0,0,0-.3-5.34c-.41-3.91-1.46-7.85-1.21-11.71.51-8,1.61-15.88,2.63-23.79.54-4.26-1.52-5.36-5.34-5.73-7.58-.72-15.13-1.74-22.64-2.94-6-.95-11.86-2.34-18-3.58-.71,5.39-1.28,9.74-1.92,14.57,2.36.57,1.11,2.85.08,5.2a21.18,21.18,0,0,0-1.59,4.93c-.52,3.26-.3,6.72-1.27,9.82a8,8,0,0,1-8.39,5.76c-2.91-.34-7.36-2.36-8-4.57a109.88,109.88,0,0,1-4.33-23.31c-.37-5,1.43-10.18,2.26-15.32-11.47-2.17-22.64-3.75-33.51-6.5-10.68-2.7-21.05-6.58-31.55-9.94L86.37,378l2.15,1.72C66.58,374.28,47,363.92,26.66,352.87ZM723.75,741.78c3.78,0,6.75.3,9.63-.06,7.76-1,15.45-2.64,23.23-3.35,14.83-1.35,29.71-2.26,44.57-3.29,5-.35,10.22,1.26,14.78-2.13.42-.31,1.29,0,1.95,0,10.56-.54,21.17-.67,31.69-1.72,17.06-1.71,34.09-3.81,51.08-6.14,23.46-3.2,47.08-5.75,70.26-10.45,24.11-4.89,48.2-10.55,71.16-19.81,13.76-5.54,28.41-9.27,39.94-19.55,4.56-4.08,9.35-8,9.76-14.41.75-11.89,1.14-23.81,1.25-35.72.11-11.71-.32-23.42-.52-35.64-3.2,1.75-5.38,3.21-7.76,4.19-6.76,2.79-13.8,5-20.35,8.15a212,212,0,0,1-40.81,15.11c-.62.16-1.67.77-1.75.64-3.3-4.78-5.73,0-8.47.77-1.26.34-2.42,1.06-3.69,1.35-8.79,2-17.6,4-26.1,5.91.55,7.81,1.12,15.88,1.67,23.62l-3.67,1.11c4.27,1.74,4,4.09,2.58,7.14a19.27,19.27,0,0,0-1.81,6.49c-.45,4.73-.23,9.54-.86,14.23-.61,4.43-3.25,7.67-7.92,8.47-4.16.71-8-1.44-8.94-4.89-1.94-7.06-4.13-14.29-2.89-21.89.23-1.43.52-3.52-.24-4.33-3.81-4.06-.67-8.38-.68-12.48,0-4.63,1.14-9.27,1.87-14.56-4.21,1.25-7.87,2.09-11.34,3.43-7.11,2.72-15.12.09-22.13,4.3-2.6,1.57-4.66,2.84-5.4,5.69s-1.93,5.75-1.68,8.52c.48,5.31-2.29,8-6.53,9.58-4.57,1.67-9.38,1.29-11.62-3.56-2.39-5.16-3.63-10.84-5.35-16.25-4.56,1-9.86,2.36-15.2,3.4-2.2.43-4.89,1-6.7.18a16.81,16.81,0,0,0-15.21,1l7.36.74a22.27,22.27,0,0,1-8.75,1.13c-3.06,0-5.92-.09-5,4.48.24,1.12.63,5.91.9,6.89a9.7,9.7,0,0,1,.49,4.21c-.24,1.32-1.25,2.5-2.35,4.53l-.35.09c.47,1.92,1.21,3.31,1,4.56-.51,3.44-1.73,6.8-2.07,10.25-.41,4.26.1,8.63-.36,12.88-.65,5.95-5.1,9.67-10.33,9.24-4.59-.38-7.76-4.53-8.2-10.27a83,83,0,0,0-1.48-8.64c-.44-2.35-1.9-5.07-1.17-7,1.19-3.11,1.47-5.44-.66-8.11-.6-.75-.56-2.23-.41-3.31.86-5.86,1.85-11.71,3-18.84-6.59,1.53-12.14,2.92-17.74,4.07a25,25,0,0,1-5.12,0c.62-3.68-2.45-2.23-3.48-2-6.77,1.55-13.18,4.79-20.41,4.08-.19,0-.42.46,0,0,0,4.43.32,8.2-.08,11.9A93.12,93.12,0,0,1,784,678.05c-1.22,4.92-4.11,8.13-9.51,8.64a8.19,8.19,0,0,1-8.81-5.25,58.09,58.09,0,0,1-3.58-23.11,25.93,25.93,0,0,1,1.09-4.6c-5.13.42-9.55.94-14,1.08a18,18,0,0,1-5.27-1.13c-1.93-.56-4-2.19-5.65-1.79A127.29,127.29,0,0,0,723.12,657c-.78.3-1.48,1.89-1.49,2.89,0,5.07-.45,10.26.4,15.21,1.68,9.81,3.36,19.48.48,29.37-.33,1.11,1.09,2.74,1.69,4.13l1.3-.53C724.92,719.17,724.35,730.29,723.75,741.78ZM1023,595c-2.38-12.91-4.58-24.85-6.8-36.92l-1.92.23c1.56-7.19,1.67-14-2.7-20.21-.82-1.17-.49-3.21-.52-4.86-.08-4.81.21-9.64-.18-14.42-.78-9.55-1.72-19.09-3-28.58-.64-4.85-2.1-9.58-3.42-15.36-5.78,2.48-10.75,5.15-16.05,6.8q-34.54,10.76-69.26,21c-6,1.75-12.23,2.58-18.37,3.76-7.74,1.47-15.46,3.63-23.27,4.09-8.47.49-16.76,1.14-24.87,3.73-1.87.6-3.92.58-5.85,1-4.93,1.16-5.8,2.86-4.32,7.62.41,1.33,1,3.15.46,4.13-2.46,4.33-.88,8.87-1,13.28s.49,8.56.79,12.86L839.27,555l4,1.17c-.88,1.22-1.8,2.51-2.73,3.79l1.28.18v6.67l1.92,1.1-3.53,3c.56,1.93,1,3.57,1.55,5.28l-4.44.55,3,2.6c-2.24,15.58-4.33,30.14-6.5,45.21,1.56-.2,2.63-.28,3.68-.48,8.75-1.62,17.43-3.68,26.24-4.81,17.55-2.25,35.53-.75,52.72-6.17a9.9,9.9,0,0,1,2-.12c12.58-1.46,25.23-2.47,37.71-4.53,13.26-2.2,26.34-5.46,39.52-8.15C1004.32,598.52,1013.06,596.93,1023,595ZM636.85,652.85c0,12.07-.21,22.38.08,32.67.19,7,1.45,14,1.54,21.07.06,5.78-.12,11.79-1.62,17.32-1.64,6.06,1.72,11.29,1.3,17,0,.54,1.65,1.64,2.62,1.76,4.38.52,8.78,1,13.19,1.09,3.63.07,7.28-.65,10.92-.6,7.31.11,14.62.62,21.94.74,4.11.07,8.26-.77,12.32-.4,5.75.53,6,.7,5.81-5.26-.54-16.62-1.25-33.24-1.82-49.86-.36-10.76-.59-21.52-.88-32.19a19.15,19.15,0,0,0-2.19-.39c-10.68-.25-21.36-.51-32-.69-2.46,0-5,.5-7.39.28C653.21,654.74,645.81,653.83,636.85,652.85ZM72.51,351.46c10.59-24.14,20.77-47.34,31.14-71-1.61.36-3.2.62-4.72,1.09-4.27,1.31-8.45,3-12.79,4a149.87,149.87,0,0,0-54.49,24.54,11.38,11.38,0,0,0-3.92,5.33c-2.23,6.84,1.55,15.29,9.3,19.24C48.81,340.72,60.93,346,72.51,351.46ZM1039.74,590c7.23-2.51,13.74-4,19.57-6.95,10-5,19.82-10.6,29.34-16.54,2.21-1.37,3.5-4.95,4.24-7.77,1.65-6.29-2.68-9.73-7.16-12.86-14-9.77-29.57-16.08-45.88-20.67-1.57-.44-3.63.86-6.2,1.55,2.91,3.4,5.27,6.1-.13,7.87,1.6,1.19,3.66,2,3.75,2.92a106.21,106.21,0,0,1,.16,11.84c0,1.92-.47,3.85-.33,5.74.52,7,1.26,13.9,1.82,20.86C1039.25,580.23,1039.42,584.46,1039.74,590ZM958.86,287.48c3.38,6.61,7,12.73,9.74,19.21,5,11.82,9.47,23.9,14.46,35.73.81,1.94,3.82,4.87,4.77,4.52,6.61-2.47,12.95-5.67,19.37-8.64l-.64-1.46-4.32,1.19a69.68,69.68,0,0,1,13.88-7.89c4.42-1.88,9.49-10,7-13.15a37.27,37.27,0,0,0-10.48-9.17c-4.87-2.82-10.44-4.4-15.61-6.72-2.76-1.23-5.22-3.15-8-4.28-4.08-1.66-8.35-2.87-12.52-4.32-.34-.12-.55-.62-.91-1.07l3.66.35.22-1.29C972.87,289.65,967.33,283.85,958.86,287.48Z"/><path d="M553.09,763.48l2.06-1.85c-3.19,7.15-3.37,14.14,1.28,21-2.32,1.06-5.31,1.75-1.79,4.73.72.62,1.31,2.64.9,3.16-4,5-1.74,10.51-1.76,15.85,0,.91-1.24,1.75-1.59,2.73-.42,1.16-1.1,3.15-.63,3.55,3.2,2.73,4,5.52,1.3,9a2.27,2.27,0,0,0,0,1.89c2.77,6.57-.48,12.74-1,19.12-.66,7.75-.22,15.61-.23,23.42,0,1.15.27,2.32.22,3.47-.65,15-1.49,29.89-2,44.84-.33,10.31-.17,20.63-.24,30.95,0,4.09-1.88,7.09-5.8,8.32s-7.56.23-9.71-3.66a9.47,9.47,0,0,1-1.09-4.21c-.38-16.64-.49-33.29-1.06-49.93-.34-9.69-1.39-19.36-2.14-29-.05-.65-.72-1.62-.48-1.87,5.46-5.8-.82-12.1.86-18.77,2.19-8.64-1-18.58-1.45-28-.28-5.84.26-11.71.33-17.57,0-2.57-.37-5.16-.28-7.73.34-9.7.78-19.4,1.23-29.1.34-7.21,1-14.41,1.09-21.62.18-16,0-32.11.11-48.16,0-7.77.49-15.53.61-23.3a33.4,33.4,0,0,0-.77-5.84c-1.22-7.51,2.8-13.6,9.11-13.77,6.52-.16,12.34,6.82,11.13,13.3a11.67,11.67,0,0,0-.32,3.84c.55,3.71,2.14,6.84.11,11.21-1.5,3.22,1,8.22,1.48,12.45.43,3.34,1.43,6.7-1.55,9.74-.66.67.94,3.23,1,4.93,0,4.57-.35,9.14-.26,13.71.06,3.1.84,6.19.93,9.3.18,5.57-.07,11.16.17,16.73.12,2.59,1.19,5.13,1.37,7.72.08,1.23-1.05,2.5-1.39,3.81-.46,1.75-.7,3.55-1,5.33Z"/></svg>