<svg id="Layer_1" data-name="Layer 1" xmlns="http://www.w3.org/2000/svg" viewBox="0 0 400 448"><defs><style>.cls-1{fill:#00325a;}.cls-2{fill:#fff;}.cls-3{fill:#d2d2d2;}</style></defs><path d="M352,480H96a32,32,0,0,1-32-32V96A32,32,0,0,1,96,64H352a32,32,0,0,1,32,32V448A32,32,0,0,1,352,480Z" transform="translate(-64 -32)"/><path class="cls-1" d="M352,472H96a16,16,0,0,1-16-16V104A16,16,0,0,1,96,88H352a16,16,0,0,1,16,16V456A16,16,0,0,1,352,472Z" transform="translate(-64 -32)"/><path class="cls-2" d="M352,464H96a16,16,0,0,1-16-16V96A16,16,0,0,1,96,80H352a16,16,0,0,1,16,16V448A16,16,0,0,1,352,464Z" transform="translate(-64 -32)"/><path class="cls-3" d="M272,72V64a24,24,0,0,0-24-24H200a24,24,0,0,0-24,24v8H160a16,16,0,0,0-16,16v16a16,16,0,0,0,16,16H288a16,16,0,0,0,16-16V88a16,16,0,0,0-16-16Z" transform="translate(-64 -32)"/><path d="M272,64V56a24,24,0,0,0-24-24H200a24,24,0,0,0-24,24v8H160a16,16,0,0,0-16,16V96a16,16,0,0,0,16,16H288a16,16,0,0,0,16-16V80a16,16,0,0,0-16-16Z" transform="translate(-64 -32)"/><circle class="cls-2" cx="104" cy="56" r="8"/><circle class="cls-2" cx="216" cy="56" r="8"/><path d="M400,128h64V416H400Z" transform="translate(-64 -32)"/><path d="M464,416H400l16,32h32Z" transform="translate(-64 -32)"/><path d="M416,448l8.85,17.69a8,8,0,0,0,14.31,0L448,448Z" transform="translate(-64 -32)"/><path class="cls-2" d="M400,112h64v16H400Z" transform="translate(-64 -32)"/><path d="M448,64H416a16,16,0,0,0-16,16v32h64V80A16,16,0,0,0,448,64Z" transform="translate(-64 -32)"/><circle cx="64" cy="280" r="16"/><path d="M328,320H168a8,8,0,0,1,0-16H328a8,8,0,0,1,0,16Z" transform="translate(-64 -32)"/><circle cx="64" cy="320" r="16"/><path d="M328,360H168a8,8,0,0,1,0-16H328a8,8,0,0,1,0,16Z" transform="translate(-64 -32)"/><circle cx="64" cy="360" r="16"/><path d="M328,400H168a8,8,0,0,1,0-16H328a8,8,0,0,1,0,16Z" transform="translate(-64 -32)"/><circle cx="64" cy="400" r="16"/><path d="M328,440H168a8,8,0,0,1,0-16H328a8,8,0,0,1,0,16Z" transform="translate(-64 -32)"/><circle class="cls-3" cx="160" cy="184" r="64"/><path class="cls-3" d="M316,152a20,20,0,0,0-20,20v8a19.91,19.91,0,0,0,8,15.91V268a12,12,0,0,0,24,0V195.91A19.89,19.89,0,0,0,336,180v-8A20,20,0,0,0,316,152Z" transform="translate(-64 -32)"/><path class="cls-3" d="M148,152a4,4,0,0,0-4,4v28h-8V156a4,4,0,0,0-8,0v28h-8V156a4,4,0,0,0-8,0v36a8,8,0,0,0,8,8v68a12,12,0,0,0,24,0V200a8,8,0,0,0,8-8V156A4,4,0,0,0,148,152Z" transform="translate(-64 -32)"/><circle cx="160" cy="176" r="64"/><circle cx="160" cy="176" r="48"/><path d="M304,160h24v48H304Z" transform="translate(-64 -32)"/><path d="M120,184h24v24H120Z" transform="translate(-64 -32)"/><path d="M304,208h24v52a12,12,0,0,1-24,0Z" transform="translate(-64 -32)"/><path d="M120,208h24v52a12,12,0,0,1-24,0Z" transform="translate(-64 -32)"/><path d="M316,192a20,20,0,0,1-20-20v-8a20,20,0,0,1,40,0v8A20,20,0,0,1,316,192Z" transform="translate(-64 -32)"/><path d="M148,144a4,4,0,0,0-4,4v28h-8V148a4,4,0,0,0-8,0v28h-8V148a4,4,0,0,0-8,0v36a8,8,0,0,0,8,8h24a8,8,0,0,0,8-8V148A4,4,0,0,0,148,144Z" transform="translate(-64 -32)"/></svg>