<svg xmlns="http://www.w3.org/2000/svg" version="1.1" xmlns:xlink="http://www.w3.org/1999/xlink" xmlns:svgjs="http://svgjs.com/svgjs" width="512" height="512" x="0" y="0" viewBox="0 0 64 64" style="enable-background:new 0 0 512 512" xml:space="preserve" class=""><g><g xmlns="http://www.w3.org/2000/svg" id="_19-whey" data-name="19-whey"><path d="m35 12h-26a3 3 0 0 1 -3-3v-5a4 4 0 0 1 4-4h24a4 4 0 0 1 4 4v5a3 3 0 0 1 -3 3zm-25-10a2 2 0 0 0 -2 2v5a1 1 0 0 0 1 1h26a1 1 0 0 0 1-1v-5a2 2 0 0 0 -2-2z" fill="#000000" data-original="#000000" class=""></path><path d="m40.347 17.647a6.989 6.989 0 0 0 -1.332-1.216l-6.588-4.612 1.146-1.638 6.588 4.611a9.029 9.029 0 0 1 1.714 1.564z" fill="#000000" data-original="#000000" class=""></path><path d="m37 64h-30a7.008 7.008 0 0 1 -7-7v-27h2v27a5.006 5.006 0 0 0 5 5h30a5.006 5.006 0 0 0 3.727-1.667l1.49 1.334a7.012 7.012 0 0 1 -5.217 2.333z" fill="#000000" data-original="#000000" class=""></path><path d="m0 26h2v2h-2z" fill="#000000" data-original="#000000" class=""></path><path d="m2 24h-2v-1.835a9.009 9.009 0 0 1 3.838-7.373l6.589-4.611 1.146 1.638-6.588 4.612a7 7 0 0 0 -2.985 5.734z" fill="#000000" data-original="#000000" class=""></path><path d="m6 50a.906.906 0 0 1 -.146-.011 1 1 0 0 1 -.854-.989v-14h2v7.187l1.042-3.474a1 1 0 0 1 1.895-.065l1.063 2.837v-8.485h2v14a1 1 0 0 1 -1.937.352l-1.958-5.223-2.147 7.158a1 1 0 0 1 -.958.713z" fill="#000000" data-original="#000000" class=""></path><path d="m21 30h2v15h-2z" fill="#000000" data-original="#000000" class=""></path><path d="m16 32h2v15h-2z" fill="#000000" data-original="#000000" class=""></path><path d="m17 38h5v2h-5z" fill="#000000" data-original="#000000" class=""></path><path d="m32 43h-5a1 1 0 0 1 -1-1v-13a1 1 0 0 1 1-1h5v2h-4v11h4z" fill="#000000" data-original="#000000" class=""></path><path d="m27 34h4v2h-4z" fill="#000000" data-original="#000000" class=""></path><path d="m37 35a1 1 0 0 1 -.937-.648l-3-8 1.874-.7 2.063 5.5 2.063-5.5 1.874.7-3 8a1 1 0 0 1 -.937.648z" fill="#000000" data-original="#000000" class=""></path><path d="m36 34h2v7h-2z" fill="#000000" data-original="#000000" class=""></path><path d="m.292 26.5h43.417v2.001h-43.417z" transform="matrix(.967 -.253 .253 .967 -6.249 6.47)" fill="#000000" data-original="#000000" class=""></path><path d="m.292 47.5h43.417v2.001h-43.417z" transform="matrix(.967 -.253 .253 .967 -11.568 7.155)" fill="#000000" data-original="#000000" class=""></path><path d="m11 5h2v6h-2z" fill="#000000" data-original="#000000" class=""></path><path d="m15 5h2v6h-2z" fill="#000000" data-original="#000000" class=""></path><path d="m19 5h2v6h-2z" fill="#000000" data-original="#000000" class=""></path><path d="m23 5h2v6h-2z" fill="#000000" data-original="#000000" class=""></path><path d="m27 5h2v6h-2z" fill="#000000" data-original="#000000" class=""></path><path d="m31 5h2v6h-2z" fill="#000000" data-original="#000000" class=""></path><path d="m61 14h-16a2 2 0 0 1 -2-2v-2.559a3 3 0 0 1 2.051-2.841.919.919 0 0 1 .2-.045l4.632-.544a.918.918 0 0 1 .117-.011h6a.918.918 0 0 1 .117.007l4.632.544a.919.919 0 0 1 .2.045 3 3 0 0 1 2.051 2.845v2.559a2 2 0 0 1 -2 2zm-15.4-5.477a1 1 0 0 0 -.6.918v2.559h16v-2.559a1 1 0 0 0 -.6-.918l-4.459-.523h-5.882z" fill="#000000" data-original="#000000" class=""></path><path d="m56 8h-6a1 1 0 0 1 -1-1v-4a1 1 0 0 1 1-1h6a1 1 0 0 1 1 1v4a1 1 0 0 1 -1 1zm-5-2h4v-2h-4z" fill="#000000" data-original="#000000" class=""></path><path d="m48 2h10v2h-10z" fill="#000000" data-original="#000000" class=""></path><path d="m46 9h2v4h-2z" fill="#000000" data-original="#000000" class=""></path><path d="m50 9h2v4h-2z" fill="#000000" data-original="#000000" class=""></path><path d="m54 9h2v4h-2z" fill="#000000" data-original="#000000" class=""></path><path d="m58 9h2v4h-2z" fill="#000000" data-original="#000000" class=""></path><path d="m62 32.999h2v2.001h-2z" fill="#000000" data-original="#000000" class=""></path><path d="m58.556 64h-11.112a5.242 5.242 0 0 1 -5.444-5v-30.562a4.761 4.761 0 0 1 1.1-3.014 4.275 4.275 0 0 0 1.122-2.424 2 2 0 0 0 -.722-1.454 4.694 4.694 0 0 1 -1.5-3.446v-1.5a2.847 2.847 0 0 1 .57-1.7 1.073 1.073 0 0 1 .114-.129l2.627-2.5a1 1 0 0 1 .689-.271h14a1 1 0 0 1 .689.275l2.627 2.5a1.073 1.073 0 0 1 .114.129 2.847 2.847 0 0 1 .57 1.701v1.5a4.694 4.694 0 0 1 -1.5 3.443 2 2 0 0 0 -.722 1.452 4.275 4.275 0 0 0 1.122 2.424 4.761 4.761 0 0 1 1.1 3.014v2.562h-2v-2.562a2.794 2.794 0 0 0 -.655-1.758 6.251 6.251 0 0 1 -1.567-3.68 3.965 3.965 0 0 1 1.351-2.909 2.719 2.719 0 0 0 .871-1.991v-1.5a.853.853 0 0 0 -.136-.455l-2.264-2.145h-13.2l-2.263 2.15a.853.853 0 0 0 -.136.455v1.5a2.716 2.716 0 0 0 .872 1.988 3.967 3.967 0 0 1 1.349 2.907 6.251 6.251 0 0 1 -1.567 3.68 2.794 2.794 0 0 0 -.655 1.758v30.562a3.249 3.249 0 0 0 3.444 3h11.112a3.249 3.249 0 0 0 3.444-3v-22h2v22a5.242 5.242 0 0 1 -5.444 5z" fill="#000000" data-original="#000000" class=""></path><path d="m53.98 42.2-1.96-.4.76-3.8h-1.78a1 1 0 0 1 -.929-1.371l2-5 1.858.742-1.452 3.629h1.523a1 1 0 0 1 .98 1.2z" fill="#000000" data-original="#000000" class=""></path><path d="m47 16h16v2h-16z" fill="#000000" data-original="#000000" class=""></path></g></g></svg>