<svg xmlns="http://www.w3.org/2000/svg" version="1.1" xmlns:xlink="http://www.w3.org/1999/xlink" xmlns:svgjs="http://svgjs.com/svgjs" width="512" height="512" x="0" y="0" viewBox="0 0 64 64" style="enable-background:new 0 0 512 512" xml:space="preserve" class=""><g><g xmlns="http://www.w3.org/2000/svg" id="Icons"><g><g><path d="m44 60h-32c-2.209 0-4-1.791-4-4v-44c0-2.209 1.791-4 4-4h32c2.209 0 4 1.791 4 4v44c0 2.209-1.791 4-4 4z" fill="#0A5078" data-original="#0a5078"></path></g><g><path d="m44 59h-32c-1.105 0-2-.895-2-2v-44c0-1.105.895-2 2-2h32c1.105 0 2 .895 2 2v44c0 1.105-.895 2-2 2z" fill="#00325A" data-original="#00325a"></path></g><g><path d="m44 58h-32c-1.105 0-2-.895-2-2v-44c0-1.105.895-2 2-2h32c1.105 0 2 .895 2 2v44c0 1.105-.895 2-2 2z" fill="#F0F0F0" data-original="#f0f0f0"></path></g><g><path d="m34 9v-1c0-1.657-1.343-3-3-3h-6c-1.657 0-3 1.343-3 3v1h-2c-1.105 0-2 .895-2 2v2c0 1.105.895 2 2 2h16c1.105 0 2-.895 2-2v-2c0-1.105-.895-2-2-2z" fill="#D2D2D2" data-original="#d2d2d2"></path></g><g><path d="m34 8v-1c0-1.657-1.343-3-3-3h-6c-1.657 0-3 1.343-3 3v1h-2c-1.105 0-2 .895-2 2v2c0 1.105.895 2 2 2h16c1.105 0 2-.895 2-2v-2c0-1.105-.895-2-2-2z" fill="#C80A50" data-original="#c80a50"></path></g><g><circle cx="21" cy="11" fill="#A00028" r="1" data-original="#a00028"></circle></g><g><circle cx="35" cy="11" fill="#A00028" r="1" data-original="#a00028"></circle></g><g><g><path d="m50 16h8v36h-8z" fill="#C80A50" data-original="#c80a50"></path></g><g><path d="m58 52h-8l2 4h4z" fill="#F0C8A0" data-original="#f0c8a0"></path></g><g><path d="m52 56 1.106 2.211c.369.737 1.42.737 1.789 0l1.105-2.211z" fill="#0A5078" data-original="#0a5078"></path></g><g><path d="m50 14h8v2h-8z" fill="#F0F0F0" data-original="#f0f0f0"></path></g><g><path d="m56 8h-4c-1.105 0-2 .895-2 2v4h8v-4c0-1.105-.895-2-2-2z" fill="#0A5078" data-original="#0a5078"></path></g></g><g><circle cx="16" cy="39" fill="#D2D2D2" r="2" data-original="#d2d2d2"></circle></g><g><path d="m41 40h-20c-.552 0-1-.448-1-1 0-.552.448-1 1-1h20c.552 0 1 .448 1 1 0 .552-.448 1-1 1z" fill="#D2D2D2" data-original="#d2d2d2"></path></g><g><circle cx="16" cy="44" fill="#D2D2D2" r="2" data-original="#d2d2d2"></circle></g><g><path d="m41 45h-20c-.552 0-1-.448-1-1 0-.552.448-1 1-1h20c.552 0 1 .448 1 1 0 .552-.448 1-1 1z" fill="#D2D2D2" data-original="#d2d2d2"></path></g><g><circle cx="16" cy="49" fill="#D2D2D2" r="2" data-original="#d2d2d2"></circle></g><g><path d="m41 50h-20c-.552 0-1-.448-1-1 0-.552.448-1 1-1h20c.552 0 1 .448 1 1 0 .552-.448 1-1 1z" fill="#D2D2D2" data-original="#d2d2d2"></path></g><g><circle cx="16" cy="54" fill="#D2D2D2" r="2" data-original="#d2d2d2"></circle></g><g><path d="m41 55h-20c-.552 0-1-.448-1-1 0-.552.448-1 1-1h20c.552 0 1 .448 1 1 0 .552-.448 1-1 1z" fill="#D2D2D2" data-original="#d2d2d2"></path></g><g><g><circle cx="28" cy="27" fill="#D2D2D2" r="8" data-original="#d2d2d2"></circle></g><g><path d="m39.5 19c-1.381 0-2.5 1.119-2.5 2.5v1c0 .815.396 1.532 1 1.989v9.011c0 .828.672 1.5 1.5 1.5s1.5-.672 1.5-1.5v-9.011c.604-.456 1-1.173 1-1.989v-1c0-1.381-1.119-2.5-2.5-2.5z" fill="#D2D2D2" data-original="#d2d2d2"></path></g><g><path d="m18.5 19c-.276 0-.5.224-.5.5v3.5h-1v-3.5c0-.276-.224-.5-.5-.5s-.5.224-.5.5v3.5h-1v-3.5c0-.276-.224-.5-.5-.5s-.5.224-.5.5v4.5c0 .552.448 1 1 1v8.5c0 .828.672 1.5 1.5 1.5s1.5-.672 1.5-1.5v-8.5c.552 0 1-.448 1-1v-4.5c0-.276-.224-.5-.5-.5z" fill="#D2D2D2" data-original="#d2d2d2"></path></g></g><g><g><circle cx="28" cy="26" fill="#FAB400" r="8" data-original="#fab400"></circle></g><g><circle cx="28" cy="26" fill="#DC9600" r="6" data-original="#dc9600"></circle></g><g><path d="m38 20h3v6h-3z" fill="#00A0C8" data-original="#00a0c8"></path></g><g><path d="m15 23h3v3h-3z" fill="#00A0C8" data-original="#00a0c8"></path></g><g><path d="m38 26h3v6.5c0 .828-.672 1.5-1.5 1.5-.828 0-1.5-.672-1.5-1.5z" fill="#C80A50" data-original="#c80a50"></path></g><g><path d="m15 26h3v6.5c0 .828-.672 1.5-1.5 1.5-.828 0-1.5-.672-1.5-1.5z" fill="#C80A50" data-original="#c80a50"></path></g><g><path d="m39.5 24c-1.381 0-2.5-1.119-2.5-2.5v-1c0-1.381 1.119-2.5 2.5-2.5 1.381 0 2.5 1.119 2.5 2.5v1c0 1.381-1.119 2.5-2.5 2.5z" fill="#00A0C8" data-original="#00a0c8"></path></g><g><path d="m18.5 18c-.276 0-.5.224-.5.5v3.5h-1v-3.5c0-.276-.224-.5-.5-.5s-.5.224-.5.5v3.5h-1v-3.5c0-.276-.224-.5-.5-.5s-.5.224-.5.5v4.5c0 .552.448 1 1 1h3c.552 0 1-.448 1-1v-4.5c0-.276-.224-.5-.5-.5z" fill="#00A0C8" data-original="#00a0c8"></path></g></g></g></g></g></svg>