<svg id="Layer_1" data-name="Layer 1" xmlns="http://www.w3.org/2000/svg" viewBox="0 0 400 448"><path d="M366.62,97h64V385h-64Z" transform="translate(-30.62 -1)"/><path d="M430.62,385h-64l16,32h32Z" transform="translate(-30.62 -1)"/><path d="M382.62,417l8.85,17.69a8,8,0,0,0,14.31,0L414.62,417Z" transform="translate(-30.62 -1)"/><path d="M414.62,33h-32a16,16,0,0,0-16,16V81h64V49A16,16,0,0,0,414.62,33Z" transform="translate(-30.62 -1)"/><path d="M318.62,33h-256a32,32,0,0,0-32,32V417a32,32,0,0,0,32,32h256a32,32,0,0,0,32-32V65A32,32,0,0,0,318.62,33Zm12.93,384a16,16,0,0,1-16,16h-256a16,16,0,0,1-16-16V65a16,16,0,0,1,16-16h256a16,16,0,0,1,16,16Z" transform="translate(-30.62 -1)"/><path d="M254.62,33h-16V25a24,24,0,0,0-24-24h-48a24,24,0,0,0-24,24v8h-16a16,16,0,0,0-16,16V65a16,16,0,0,0,16,16h128a16,16,0,0,0,16-16V49A16,16,0,0,0,254.62,33Zm-120,32a8,8,0,1,1,8-8A8,8,0,0,1,134.62,65Zm112,0a8,8,0,1,1,8-8A8,8,0,0,1,246.62,65Z" transform="translate(-30.62 -1)"/><circle cx="64" cy="280" r="16"/><path d="M294.62,289h-160a8,8,0,0,1,0-16h160a8,8,0,0,1,0,16Z" transform="translate(-30.62 -1)"/><circle cx="64" cy="320" r="16"/><path d="M294.62,329h-160a8,8,0,0,1,0-16h160a8,8,0,0,1,0,16Z" transform="translate(-30.62 -1)"/><circle cx="64" cy="360" r="16"/><path d="M294.62,369h-160a8,8,0,0,1,0-16h160a8,8,0,0,1,0,16Z" transform="translate(-30.62 -1)"/><circle cx="64" cy="400" r="16"/><path d="M294.62,409h-160a8,8,0,0,1,0-16h160a8,8,0,0,1,0,16Z" transform="translate(-30.62 -1)"/><circle cx="160" cy="176" r="64"/><circle cx="160" cy="176" r="48"/><path d="M270.62,129h24v48h-24Z" transform="translate(-30.62 -1)"/><path d="M86.62,153h24v24h-24Z" transform="translate(-30.62 -1)"/><path d="M270.62,177h24v52a12,12,0,0,1-24,0Z" transform="translate(-30.62 -1)"/><path d="M86.62,177h24v52a12,12,0,0,1-24,0Z" transform="translate(-30.62 -1)"/><path d="M282.62,161a20,20,0,0,1-20-20v-8a20,20,0,0,1,40,0v8A20,20,0,0,1,282.62,161Z" transform="translate(-30.62 -1)"/><path d="M114.62,113a4,4,0,0,0-4,4v28h-8V117a4,4,0,0,0-8,0v28h-8V117a4,4,0,0,0-8,0v36a8,8,0,0,0,8,8h24a8,8,0,0,0,8-8V117A4,4,0,0,0,114.62,113Z" transform="translate(-30.62 -1)"/></svg>