<svg xmlns="http://www.w3.org/2000/svg" version="1.1" xmlns:xlink="http://www.w3.org/1999/xlink" xmlns:svgjs="http://svgjs.com/svgjs" width="512" height="512" x="0" y="0" viewBox="0 0 64 64" style="enable-background:new 0 0 512 512" xml:space="preserve"><g><g xmlns="http://www.w3.org/2000/svg" id="_22-stationary_bike" data-name="22-stationary bike"><path d="M19,9H10a1,1,0,0,1-.406-.086L1.555,5.341A2.622,2.622,0,0,1,0,2.948v-.33A2.619,2.619,0,0,1,3.789.276L11.236,4H19a1,1,0,0,1,1,1V8A1,1,0,0,1,19,9ZM10.212,7H18V6H11a1,1,0,0,1-.447-.105L2.9,2.065A.635.635,0,0,0,2,2.618v.33a.62.62,0,0,0,.367.565Z" fill="#000000" data-original="#000000"></path><path d="M19.547,37a1.084,1.084,0,0,1-.218-.023l-6.546-1.455a1,1,0,0,1-.76-1.193l1.455-6.546a1.008,1.008,0,0,1,1.193-.76l6.546,1.455a1,1,0,0,1,.76,1.193l-1.455,6.546A1,1,0,0,1,19.547,37Zm-5.354-3.214,4.593,1.021,1.021-4.593-4.593-1.021Z" fill="#000000" data-original="#000000"></path><path d="M44,51H42a.945.945,0,0,1-.176-.016l-28-5,.352-1.968L42.089,49H44a6,6,0,0,0,0-12H28a.984.984,0,0,1-.242-.03L23.877,36H20V34h4a.984.984,0,0,1,.242.03l3.881.97H44a8,8,0,0,1,0,16Z" fill="#000000" data-original="#000000"></path><path d="M44,48a5,5,0,1,1,5-5A5.006,5.006,0,0,1,44,48Zm0-8a3,3,0,1,0,3,3A3,3,0,0,0,44,40Z" fill="#000000" data-original="#000000"></path><path d="M28,32.72a2.037,2.037,0,0,1-.488-.06l-6.758-1.69.484-1.94L28,30.72V30h2v.719a2,2,0,0,1-2,2Z" fill="#000000" data-original="#000000"></path><path d="M41,37H35a1,1,0,0,1-.753-.342c-.067-.077-6.82-7.747-13.516-11.658H20c-2.61,0-8,.739-8,3v.956c.113-.06.268-.153.39-.227a9.388,9.388,0,0,1,1.221-.651l.778,1.844a7.588,7.588,0,0,0-.966.519A2.838,2.838,0,0,1,12,31a1.959,1.959,0,0,1-2-2V28c0-4.859,8.977-5,10-5h1a1,1,0,0,1,.5.132C27.816,26.743,34.007,33.4,35.448,35h3.445a83.223,83.223,0,0,0-10.8-10.221l1.252-1.558A79.408,79.408,0,0,1,41.789,35.386,1,1,0,0,1,41,37Z" fill="#000000" data-original="#000000"></path><path d="M26.389,23.436c-.792-.612-1.522-1.16-2.163-1.632l1.187-1.61c.651.481,1.393,1.036,2.2,1.66Z" fill="#000000" data-original="#000000"></path><path d="M26.937,36.586a10.926,10.926,0,0,0-7.1-4.434l.332-1.972a12.916,12.916,0,0,1,8.4,5.238Z" fill="#000000" data-original="#000000"></path><path d="M8.248,51.6A13,13,0,0,1,13.667,30.74l.666,1.885A11,11,0,0,0,9.748,50.273Z" fill="#000000" data-original="#000000"></path><path d="M18,56a12.9,12.9,0,0,1-5.2-1.083l.8-1.832A10.932,10.932,0,0,0,18,54a11.042,11.042,0,0,0,8.937-4.584l1.623,1.168A13.041,13.041,0,0,1,18,56Z" fill="#000000" data-original="#000000"></path><path d="M13.293,5.707,9.586,2H8.414L6.707,3.707,5.293,2.293l2-2A1,1,0,0,1,8,0h2a1,1,0,0,1,.707.293l4,4Z" fill="#000000" data-original="#000000"></path><path d="M11,64H5a2,2,0,0,1-2-2V60a2,2,0,0,1,2-2h6a2,2,0,0,1,2,2v2A2,2,0,0,1,11,64ZM5,60v2h6l0-2Z" fill="#000000" data-original="#000000"></path><path d="M62,64H56a2,2,0,0,1-2-2V60a2,2,0,0,1,2-2h6a2,2,0,0,1,2,2v2A2,2,0,0,1,62,64Zm-6-4v2h6l0-2Z" fill="#000000" data-original="#000000"></path><path d="M58.105,59.447c-1.919-3.839-8.789-11.71-8.858-11.789l1.506-1.316c.289.33,7.107,8.142,9.142,12.211Z" fill="#000000" data-original="#000000"></path><rect x="12" y="60" width="3" height="2" fill="#000000" data-original="#000000"></rect><path d="M55,62H17V60H53.12c-1.771-2.343-5.373-6.529-7.867-9.336l1.494-1.328c.828.931,8.118,9.158,9.148,11.217A1,1,0,0,1,55,62Z" fill="#000000" data-original="#000000"></path><path d="M59.623,16H57a1,1,0,0,1-.706-.292A5.865,5.865,0,0,0,53,14H50.236a2.236,2.236,0,0,1-1-4.235h0l1.056-.528a2.242,2.242,0,0,1,1-.236h9.384a3.325,3.325,0,0,1,1.051,6.479l-1.053.351A3.338,3.338,0,0,1,59.623,16Zm-2.229-2h2.229a1.305,1.305,0,0,0,.417-.067l1.054-.352A1.324,1.324,0,0,0,60.676,11H51.292a.248.248,0,0,0-.1.024l-1.057.529a.236.236,0,0,0,.1.447H53A7.335,7.335,0,0,1,57.394,14Z" fill="#000000" data-original="#000000"></path><path d="M50,21H48V18a1,1,0,0,1,1-1h7V15h2v3a1,1,0,0,1-1,1H50Z" fill="#000000" data-original="#000000"></path><path d="M59,26H51a3,3,0,0,1-3-3V21a1,1,0,0,1,1-1H59a3,3,0,0,1,0,6Zm-9-4v1a1,1,0,0,0,1,1h8a1,1,0,0,0,0-2Z" fill="#000000" data-original="#000000"></path><rect x="43.536" y="30.5" width="13.928" height="2.001" transform="translate(2.961 67.313) rotate(-68.946)" fill="#000000" data-original="#000000"></rect><rect x="45.456" y="32" width="17.088" height="2.001" transform="translate(4.127 71.958) rotate(-69.424)" fill="#000000" data-original="#000000"></rect><rect x="-2.598" y="46" width="25.346" height="2.001" transform="translate(-37.67 41.445) rotate(-71.264)" fill="#000000" data-original="#000000"></rect><rect x="11.438" y="14" width="19.01" height="2.001" transform="translate(0.011 30.016) rotate(-71.264)" fill="#000000" data-original="#000000"></rect><path d="M20.136,29.321l-1.895-.642L25.6,7H19V5h8a1,1,0,0,1,.947,1.321Z" fill="#000000" data-original="#000000"></path><rect x="0.562" y="46.222" width="24.876" height="2.001" transform="translate(-35.896 44.366) rotate(-71.264)" fill="#000000" data-original="#000000"></rect></g></g></svg>