<svg xmlns="http://www.w3.org/2000/svg" version="1.1" xmlns:xlink="http://www.w3.org/1999/xlink" xmlns:svgjs="http://svgjs.com/svgjs" width="512" height="512" x="0" y="0" viewBox="0 0 64 64" style="enable-background:new 0 0 512 512" xml:space="preserve"><g><g xmlns="http://www.w3.org/2000/svg" id="_08-yoga" data-name="08-yoga"><path d="M32,12a4,4,0,0,1-4-4V6a4,4,0,0,1,8,0V8A4,4,0,0,1,32,12Zm0-8a2,2,0,0,0-2,2V8a2,2,0,0,0,4,0V6A2,2,0,0,0,32,4Z" fill="#000000" data-original="#000000"></path><path d="M41.081,21.394,38.5,15.361a1,1,0,0,0-.724-.587L33.8,13.98a1,1,0,0,1-.7-.533l-1-2,1.79-.894.781,1.562,3.489.7a3,3,0,0,1,2.168,1.759l2.586,6.034Z" fill="#000000" data-original="#000000"></path><path d="M41,25a1,1,0,0,1-.394-.081L33.8,22H33a2,2,0,0,1-2-2V15a1,1,0,0,1,1.857-.515l2.756,4.592,6.529.933a1,1,0,0,1,.753.543l1,2a1,1,0,0,1-.448,1.342l-2,1A1,1,0,0,1,41,25Zm-3.657-3.655L40.968,22.9l.69-.345-.318-.637ZM33,18.61V20h.834Z" fill="#000000" data-original="#000000"></path><path d="M23,25a1,1,0,0,1-.447-.105l-2-1a1,1,0,0,1-.448-1.342l1-2a1,1,0,0,1,.753-.543l6.529-.933,2.756-4.592A1,1,0,0,1,33,15v5a2,2,0,0,1-2,2h-.8l-6.811,2.919A1,1,0,0,1,23,25Zm-.658-2.447.69.345,3.625-1.553-4,.571ZM30.166,20H31V18.61Z" fill="#000000" data-original="#000000"></path><path d="M22.919,21.394l-1.838-.788,2.586-6.033a3,3,0,0,1,2.168-1.76l3.489-.7.781-1.562,1.79.894-1,2a1,1,0,0,1-.7.533l-3.968.794a1,1,0,0,0-.724.587Z" fill="#000000" data-original="#000000"></path><path d="M35,64H31a1,1,0,0,1-1-1V58h2v4h1.523l-1.452-3.628,1.858-.744,2,5A1,1,0,0,1,35,64Z" fill="#000000" data-original="#000000"></path><path d="M32,30A13.128,13.128,0,0,1,26.553,28.9l.891-1.791a12.031,12.031,0,0,0,9.112,0l.891,1.791A13.128,13.128,0,0,1,32,30Z" fill="#000000" data-original="#000000"></path><path d="M35,4H33V3a1,1,0,0,0-2,0V4H29V3a3,3,0,0,1,6,0Z" fill="#000000" data-original="#000000"></path><path d="M33,59H31a1,1,0,0,1-1-1.083l1-12,0-9.337a.6.6,0,0,0-.869-.5L23.564,39.83l-4.939,3.951-1.25-1.562,5-4a1.12,1.12,0,0,1,.129-.087L29.14,34.34A2.58,2.58,0,0,1,33,36.58V46l-.914,11h.124l4.708-19.774a2.97,2.97,0,0,0,.082-.7V34a15.81,15.81,0,0,0-2.8-8.4,1,1,0,0,1-.16-.874l.857-3,1.923.549-.727,2.545A17.522,17.522,0,0,1,39,34v2.53a5.021,5.021,0,0,1-.136,1.158L33.973,58.231A1,1,0,0,1,33,59Z" fill="#000000" data-original="#000000"></path><rect x="35" y="12.807" width="2.001" height="5.385" transform="translate(-3.182 14.479) rotate(-21.801)" fill="#000000" data-original="#000000"></rect><path d="M18,44a1,1,0,0,1-.316-.051L16.35,43.5a3.437,3.437,0,0,1-.929-6.044l9.531-6.9a.984.984,0,0,0,.286-.436l.729-2.185a3,3,0,0,1,.349-.715l1.6-2.393-.873-3.055,1.922-.55,1,3.5a1,1,0,0,1-.129.83L27.98,28.332a1.093,1.093,0,0,0-.116.238l-.728,2.186a3,3,0,0,1-.972,1.394l-9.57,6.931a1.436,1.436,0,0,0,.388,2.525l1,.335L28.658,38.06a1,1,0,0,1,.9.108l3,2-1.11,1.664-2.579-1.719L18.342,43.94A1.006,1.006,0,0,1,18,44Z" fill="#000000" data-original="#000000"></path><rect x="27.572" y="21.941" width="2" height="3.119" transform="translate(-5.357 8.754) rotate(-15.947)" fill="#000000" data-original="#000000"></rect><rect x="25.307" y="14.5" width="5.385" height="2.001" transform="translate(3.208 35.739) rotate(-68.193)" fill="#000000" data-original="#000000"></rect></g></g></svg>