<svg xmlns="http://www.w3.org/2000/svg" version="1.1" xmlns:xlink="http://www.w3.org/1999/xlink" xmlns:svgjs="http://svgjs.com/svgjs" width="512" height="512" x="0" y="0" viewBox="0 0 511.938 511.938" style="enable-background:new 0 0 512 512" xml:space="preserve"><g><g xmlns="http://www.w3.org/2000/svg"><path d="m500.21 139.007-35.354-35.354 35.355-35.364c3.904-3.905 3.903-10.236-.001-14.142l-42.42-42.42c-3.905-3.904-10.236-3.905-14.142 0l-35.364 35.356-35.352-35.352c-15.62-15.633-40.934-15.647-56.563-.005l-15.039 15.032c-14.912-8.826-35.098-7.324-48.603 6.179-15.636 15.637-15.637 40.934 0 56.572l56.569 56.569-163.217 163.219-56.569-56.569c-15.631-15.632-40.932-15.641-56.569-.003-13.493 13.483-15.035 33.666-6.185 48.609l-15.026 15.031c-15.635 15.622-15.645 40.935-.004 56.564l35.355 35.355-35.355 35.364c-3.904 3.905-3.903 10.236.001 14.142l42.42 42.42c3.907 3.905 10.236 3.905 14.142.001l35.364-35.356 35.352 35.352c15.622 15.634 40.936 15.645 56.563.004l15.036-15.029c15.189 8.997 35.316 7.118 48.605-6.182 15.597-15.597 15.597-40.975 0-56.572l-56.569-56.568 48.845-48.846c3.905-3.905 3.905-10.237 0-14.142-3.906-3.905-10.236-3.905-14.143 0l-48.845 48.845-28.278-28.278 163.218-163.218 28.277 28.277-50.764 50.765c-3.905 3.905-3.905 10.237 0 14.142 3.906 3.905 10.236 3.905 14.143 0l50.764-50.764 56.569 56.569c15.635 15.636 40.934 15.638 56.572 0 13.505-13.506 15.003-33.693 6.179-48.602l15.028-15.035c15.638-15.624 15.646-40.936.005-56.566zm-438.99 339.991-28.279-28.28 28.284-28.291 28.286 28.286zm120.205 7.073c-7.808 7.814-20.457 7.821-28.275-.004l-127.283-127.282c-7.815-7.809-7.821-20.456.004-28.277l14.139-14.145 155.565 155.565zm63.639-21.21c-7.81 7.816-20.461 7.817-28.271 0-.001-.001-.002-.002-.003-.003l-169.713-169.713c-7.816-7.81-7.82-20.457.003-28.275 7.82-7.82 20.467-7.821 28.287 0 3.528 3.528 163.62 163.62 169.7 169.699 7.799 7.8 7.799 20.49-.003 28.292zm205.654-431.921 28.279 28.28-28.284 28.291-28.286-28.286zm14.139 212.128c-7.82 7.82-20.467 7.821-28.287 0l-169.7-169.7c-7.799-7.799-7.799-20.488 0-28.287 7.793-7.795 20.482-7.797 28.277 0l169.71 169.71c7.797 7.795 7.797 20.481 0 28.277zm21.208-63.639-14.138 14.145-155.564-155.564 14.15-14.143c7.808-7.814 20.458-7.82 28.274.003l127.283 127.283c7.815 7.808 7.822 20.455-.005 28.276z" fill="#000000" data-original="#000000"></path><circle cx="276.01" cy="277.929" r="10" fill="#000000" data-original="#000000"></circle></g></g></svg>