<svg xmlns="http://www.w3.org/2000/svg" version="1.1" xmlns:xlink="http://www.w3.org/1999/xlink" xmlns:svgjs="http://svgjs.com/svgjs" width="512" height="512" x="0" y="0" viewBox="0 0 64 64" style="enable-background:new 0 0 512 512" xml:space="preserve"><g><g xmlns="http://www.w3.org/2000/svg" id="_04-muscle" data-name="04-muscle"><path d="M27.172,30H22.708a6.964,6.964,0,0,1-6.261-3.87l-1.92-3.838A5.047,5.047,0,0,1,14,20.056V17.373a5.021,5.021,0,0,1,1.054-3.07l6.157-7.917a1,1,0,0,1,1.236-.281L30.236,10A4.973,4.973,0,0,1,33,14.472v8.871a4.968,4.968,0,0,1-1.465,3.535l-2.242,2.243A2.978,2.978,0,0,1,27.172,30ZM22.286,8.261,16.632,15.53A3.023,3.023,0,0,0,16,17.373v2.683a3.022,3.022,0,0,0,.316,1.342l1.92,3.838A4.974,4.974,0,0,0,22.708,28h4.464a1.009,1.009,0,0,0,.707-.293l2.242-2.243A3.017,3.017,0,0,0,31,23.343V14.472a2.985,2.985,0,0,0-1.658-2.683Z" fill="#000000" data-original="#000000"></path><path d="M30,37H25.828a2.978,2.978,0,0,1-2.121-.879l-3.414-3.414A1,1,0,0,1,20,32V29h2v2.586l3.121,3.121a1.009,1.009,0,0,0,.707.293H30a1,1,0,0,0,1-1V30h2v4A3,3,0,0,1,30,37Z" fill="#000000" data-original="#000000"></path><path d="M30,42H25.961a2.988,2.988,0,0,1-2.342-1.125l-3.4-4.25A1,1,0,0,1,20,36V32h2v3.649l3.181,3.976a.994.994,0,0,0,.78.375H30a1,1,0,0,0,1-1V37h2v2A3,3,0,0,1,30,42Z" fill="#000000" data-original="#000000"></path><path d="M32,46H26.236a2.983,2.983,0,0,1-2.683-1.658l-1.448-2.895A1,1,0,0,1,22,41V38h2v2.764l1.342,2.683a1,1,0,0,0,.894.553H32Z" fill="#000000" data-original="#000000"></path><path d="M27.758,57.97l-1.852-.463A4.007,4.007,0,0,1,22.894,54a10.966,10.966,0,0,0-.789-3.549,4.675,4.675,0,0,0-2.22-1.708A5,5,0,0,1,17,44.211V44a1,1,0,0,1,.03-.243l.935-3.74L16.14,33.628l-2.695-1.8a1,1,0,0,1-.415-1.075l2-8,1.94.486-1.829,7.316,2.414,1.609a1.007,1.007,0,0,1,.407.557l2,7a1,1,0,0,1,.008.518L19,44.211a3,3,0,0,0,1.725,2.713,6.339,6.339,0,0,1,3.17,2.629,12.5,12.5,0,0,1,.991,4.257,2,2,0,0,0,1.5,1.757l1.851.463Z" fill="#000000" data-original="#000000"></path><path d="M29,58c-10.186,0-13.422-2.08-13.555-2.168A1,1,0,0,1,15,55V52c0-2.347,2.956-5.37,3.293-5.707l1.414,1.414C18.583,48.833,17,50.91,17,52v2.384C18.132,54.868,21.572,56,29,56Z" fill="#000000" data-original="#000000"></path><path d="M7,25a.976.976,0,0,1-.153-.012,1,1,0,0,1-.679-.433l-2-3A1.006,1.006,0,0,1,4,21V15.062a6.967,6.967,0,0,1,4.4-6.5l6.229-2.492A1,1,0,0,1,15,6h7V8H15.192L9.143,10.42A4.975,4.975,0,0,0,6,15.062V20.7l1.227,1.841,4.148-3.319a1,1,0,0,1,.941-.168l3,1-.632,1.9L12.2,21.121l-4.575,3.66A1,1,0,0,1,7,25Z" fill="#000000" data-original="#000000"></path><path d="M12,40a.994.994,0,0,1-.358-.066L7.325,38.275A5.848,5.848,0,0,1,4,33a1,1,0,0,1,.052-.316L6,26.838V24H8v3a1,1,0,0,1-.052.316L6,33.153a3.831,3.831,0,0,0,2.128,3.294l3.38,1.295L13,34.764V31h2v4a1,1,0,0,1-.105.447l-2,4A1,1,0,0,1,12,40Z" fill="#000000" data-original="#000000"></path><path d="M11,64H5a1,1,0,0,1-.707-.293l-1-1a1,1,0,0,1-.258-.444l-3-11A1.016,1.016,0,0,1,0,51V39a1,1,0,0,1,.03-.243L1,34.877V26a1,1,0,0,1,.143-.515l3-5,1.714,1.03L3,26.277V35a1,1,0,0,1-.03.243L2,39.123V50.866L4.895,61.48l.519.52H9.819l-.805-4.835A1,1,0,0,1,9.02,56.8l1.926-9.633L7.132,40.5A1,1,0,0,1,7,40V37H9v2.734l3.868,6.77a.994.994,0,0,1,.112.692l-1.963,9.821.969,5.818A1,1,0,0,1,11,64Z" fill="#000000" data-original="#000000"></path><rect x="11" y="39" width="2" height="8" fill="#000000" data-original="#000000"></rect><path d="M15.625,7.781l-1.25-1.562,1.165-.932A15.061,15.061,0,0,1,24,2.028V1h2V3a1,1,0,0,1-1,1,13.111,13.111,0,0,0-8.21,2.849Z" fill="#000000" data-original="#000000"></path><path d="M48.375,7.781,47.21,6.849A13.048,13.048,0,0,0,39.089,4,1.08,1.08,0,0,1,38,3V1h2V2.032a15.08,15.08,0,0,1,8.46,3.255l1.165.932Z" fill="#000000" data-original="#000000"></path><path d="M41.292,30H36.828a2.978,2.978,0,0,1-2.121-.879l-2.242-2.243A4.968,4.968,0,0,1,31,23.343V14.472A4.973,4.973,0,0,1,33.764,10l7.789-3.895a1,1,0,0,1,1.236.281L48.946,14.3A5.021,5.021,0,0,1,50,17.373v2.683a5.047,5.047,0,0,1-.527,2.236l-1.92,3.838A6.964,6.964,0,0,1,41.292,30Zm.422-21.739-7.056,3.528A2.985,2.985,0,0,0,33,14.472v8.871a3.017,3.017,0,0,0,.879,2.121l2.242,2.243a1.009,1.009,0,0,0,.707.293h4.464a4.974,4.974,0,0,0,4.472-2.764l1.92-3.839A3.014,3.014,0,0,0,48,20.056V17.373a3.023,3.023,0,0,0-.632-1.843Z" fill="#000000" data-original="#000000"></path><path d="M38.172,37H34a3,3,0,0,1-3-3V30h2v4a1,1,0,0,0,1,1h4.172a1.009,1.009,0,0,0,.707-.293L42,31.586V29h2v3a1,1,0,0,1-.293.707l-3.414,3.414A2.978,2.978,0,0,1,38.172,37Z" fill="#000000" data-original="#000000"></path><path d="M38.039,42H34a3,3,0,0,1-3-3V37h2v2a1,1,0,0,0,1,1h4.039a1,1,0,0,0,.781-.376L42,35.649V32h2v4a1,1,0,0,1-.219.625l-3.4,4.249A2.989,2.989,0,0,1,38.039,42Z" fill="#000000" data-original="#000000"></path><path d="M37.764,46H32V44h5.764a1,1,0,0,0,.894-.553L40,40.764V38h2v3a1,1,0,0,1-.1.447l-1.448,2.895A2.983,2.983,0,0,1,37.764,46Z" fill="#000000" data-original="#000000"></path><path d="M34.279,58H28.721a2,2,0,0,1-1.9-1.368l-1.669-5.007a2.991,2.991,0,0,1-.154-.95V45h2v5.675a.987.987,0,0,0,.051.316L28.721,56h5.558a3.739,3.739,0,0,0,1.033-.1l1.637-4.911A1,1,0,0,0,37,50.675V45h2v5.675a2.991,2.991,0,0,1-.154.95l-1.67,5.008C36.722,58,35.072,58,34.279,58Z" fill="#000000" data-original="#000000"></path><path d="M36.242,57.97l-.484-1.94,1.851-.463a2,2,0,0,0,1.5-1.757,12.5,12.5,0,0,1,.991-4.257,6.339,6.339,0,0,1,3.17-2.629A3,3,0,0,0,45,44.211v-.088l-.97-3.88a1,1,0,0,1,.008-.518l2-7a1.007,1.007,0,0,1,.407-.557l2.414-1.609L47.03,23.243l1.94-.486,2,8a1,1,0,0,1-.415,1.075l-2.695,1.8-1.825,6.389.935,3.74A1,1,0,0,1,47,44v.211a5,5,0,0,1-2.885,4.528,4.675,4.675,0,0,0-2.22,1.708A10.966,10.966,0,0,0,41.106,54a4.007,4.007,0,0,1-3.012,3.511Z" fill="#000000" data-original="#000000"></path><path d="M35,58V56c7.416,0,10.856-1.128,12-1.618V52c0-1.09-1.583-3.167-2.707-4.293l1.414-1.414C46.044,46.63,49,49.653,49,52v3a1,1,0,0,1-.445.832C48.422,55.92,45.186,58,35,58Z" fill="#000000" data-original="#000000"></path><path d="M57,25a1,1,0,0,1-.625-.219L51.8,21.121l-2.484.828-.632-1.9,3-1a1,1,0,0,1,.941.168l4.148,3.319L58,20.7V15.062a4.978,4.978,0,0,0-3.143-4.643L48.808,8H42V6h7a1,1,0,0,1,.371.071L55.6,8.562a6.969,6.969,0,0,1,4.4,6.5V21a1.006,1.006,0,0,1-.168.555l-2,3a1,1,0,0,1-.679.433A.976.976,0,0,1,57,25Z" fill="#000000" data-original="#000000"></path><path d="M52,40a1,1,0,0,1-.9-.553l-2-4A1,1,0,0,1,49,35V31h2v3.764l1.488,2.977,3.47-1.333A3.8,3.8,0,0,0,58,33.153l-1.945-5.837A1,1,0,0,1,56,27V24h2v2.838l1.948,5.846A1,1,0,0,1,60,33a5.823,5.823,0,0,1-3.236,5.236l-4.406,1.7A.994.994,0,0,1,52,40Z" fill="#000000" data-original="#000000"></path><path d="M59,64H53a1,1,0,0,1-.986-1.165l.969-5.818L51.02,47.2a.994.994,0,0,1,.112-.692L55,39.734V37h2v3a1,1,0,0,1-.132.5l-3.814,6.675L54.98,56.8a1,1,0,0,1,.006.361L54.181,62h4.405l.519-.52L62,50.866V39.123l-.97-3.88A1,1,0,0,1,61,35V26.277l-2.857-4.762,1.714-1.03,3,5A1,1,0,0,1,63,26v8.877l.97,3.88A1,1,0,0,1,64,39V51a1.016,1.016,0,0,1-.035.263l-3,11a1,1,0,0,1-.258.444l-1,1A1,1,0,0,1,59,64Z" fill="#000000" data-original="#000000"></path><rect x="51" y="39" width="2" height="8" fill="#000000" data-original="#000000"></rect><path d="M51,64H13a1,1,0,0,1-1-1V61a1,1,0,0,1,.105-.447l3-6,1.79.894L14,61.236V62H50v-.764l-2.9-5.789,1.79-.894,3,6A1,1,0,0,1,52,61v2A1,1,0,0,1,51,64Z" fill="#000000" data-original="#000000"></path><path d="M32,10a3.393,3.393,0,0,1-2.414-1L27.293,6.707A1,1,0,0,1,27,6V1h2V5.586l2,2a1.447,1.447,0,0,0,2,0l2-2V1h2V6a1,1,0,0,1-.293.707L34.414,9A3.393,3.393,0,0,1,32,10Z" fill="#000000" data-original="#000000"></path></g></g></svg>