<svg xmlns="http://www.w3.org/2000/svg" version="1.1" xmlns:xlink="http://www.w3.org/1999/xlink" xmlns:svgjs="http://svgjs.com/svgjs" width="512" height="512" x="0" y="0" viewBox="0 0 60 60" style="enable-background:new 0 0 512 512" xml:space="preserve" class=""><g><g xmlns="http://www.w3.org/2000/svg" id="Page-1" fill="none" fill-rule="evenodd"><g id="002---Weight-Target" fill="rgb(0,0,0)" fill-rule="nonzero"><path id="Shape" d="m6 40c0 6.0751322 4.9248678 11 11 11s11-4.9248678 11-11-4.9248678-11-11-11c-6.0721626.0071635-10.9928365 4.9278374-11 11zm20 0c0 4.9705627-4.0294373 9-9 9s-9-4.0294373-9-9 4.0294373-9 9-9c4.9680501.006061 8.993939 4.0319499 9 9z" fill="#000000" data-original="#000000" class=""></path><path id="Shape" d="m12 40c0 2.7614237 2.2385763 5 5 5s5-2.2385763 5-5-2.2385763-5-5-5c-2.7600532.0033061-4.9966939 2.2399468-5 5zm8 0c0 1.6568542-1.3431458 3-3 3s-3-1.3431458-3-3 1.3431458-3 3-3 3 1.3431458 3 3z" fill="#000000" data-original="#000000" class=""></path><path id="Shape" d="m1.055 56.971c-.37072259.6178641-.38043198 1.3873806-.02541675 2.0144017.35501522.6270211 1.0198675 1.0146052 1.74041675 1.0145983h4.64c.72544267-.004115 1.39378115-.3942966 1.754-1.024l1.736-3.127c3.9218852 1.5346376 8.2781148 1.5346376 12.2 0l1.746 3.144c.361383.6214292 1.0251352 1.0046852 1.744 1.007h4.64c.7193304-.0003491 1.383063-.3869632 1.7382342-1.0124948.3551713-.6255316.3470631-1.3936108-.0212342-2.0115052l-3.355-5.595c2.8343791-3.1129635 4.4060995-7.1709831 4.408-11.381 0-.379-.011-.758-.044-1.136-.0232736-.3618588-.2406089-.6827669-.5679894-.8386691s-.7135049-.1223683-1.0091071.0876383c-.2956023.2100067-.4543608.5635775-.4149035.9240308.028.32.036.642.036.963 0 8.2842712-6.7157288 15-15 15-8.28427125 0-15-6.7157288-15-15s6.71572875-15 15-15c1.9273105-.0050936 3.836832.3686561 5.62 1.1.3304707.1357609.7082658.0849052.9910735-.1334103.2828078-.2183156.427663-.5709236.38-.925-.0476629-.3540765-.2806028-.6558288-.6110735-.7915897-2.024327-.8303204-4.1920085-1.2550229-6.38-1.25-6.721241-.0115294-12.81600046 3.9446355-15.54182174 10.0883406-2.72582127 6.143705-1.56904221 13.3172115 2.94982174 18.2926594zm25.529 1.034-1.654-2.979c1.1467079-.6095043 2.2202889-1.3475913 3.2-2.2l3.1 5.174zm-19.174-.005h-4.642l3.106-5.18c.97921356.8530507 2.05287088 1.5911901 3.2 2.2z" fill="#000000" data-original="#000000" class=""></path><path id="Shape" d="m52 0h-18c-4.4162219.00495988-7.9950401 3.58377808-8 8v20c.0049599 4.4162219 3.5837781 7.9950401 8 8h18c4.4162219-.0049599 7.9950401-3.5837781 8-8v-20c-.0049599-4.41622192-3.5837781-7.99504012-8-8zm6 28c-.0033074 3.3123376-2.6876624 5.9966926-6 6h-18c-3.3123376-.0033074-5.9966926-2.6876624-6-6v-20c.0033074-3.31233757 2.6876624-5.99669262 6-6h18c3.3123376.00330738 5.9966926 2.68766243 6 6z" fill="#000000" data-original="#000000" class=""></path><path id="Shape" d="m43 20c4.418278 0 8-3.581722 8-8s-3.581722-8-8-8-8 3.581722-8 8c.0049599 4.4162219 3.5837781 7.9950401 8 8zm0-14c3.3137085 0 6 2.6862915 6 6s-2.6862915 6-6 6-6-2.6862915-6-6c.0033074-3.31233757 2.6876624-5.99669262 6-6z" fill="#000000" data-original="#000000" class=""></path><path id="Shape" d="m43 13c.5522847 0 1-.4477153 1-1v-3c0-.55228475-.4477153-1-1-1s-1 .44771525-1 1v3c0 .5522847.4477153 1 1 1z" fill="#000000" data-original="#000000" class=""></path><path id="Shape" d="m53.162 17c-.8645627-.0047409-1.6828287.3901822-2.217 1.07-1.8919474 2.4752855-4.8294738 3.9273585-7.945 3.9273585s-6.0530526-1.452073-7.945-3.9273585c-.5341713-.6798178-1.3524373-1.0747409-2.217-1.07-1.5666987.0016535-2.8363465 1.2713013-2.838 2.838v8.162c0 2.209139 1.790861 4 4 4h18c2.209139 0 4-1.790861 4-4v-8.162c-.0016535-1.5666987-1.2713013-2.8363465-2.838-2.838zm.838 11c0 1.1045695-.8954305 2-2 2h-18c-1.1045695 0-2-.8954305-2-2v-8.162c.000551-.4625862.3754138-.837449.838-.838.2429988-.0064906.4754239.099392.63.287 2.2704486 2.9688001 5.7945261 4.7102143 9.532 4.7102143s7.2615514-1.7414142 9.532-4.7102143c.1540931-.1883506.3867395-.2947032.63-.288.4625862.000551.837449.3754138.838.838z" fill="#000000" data-original="#000000" class=""></path></g></g></g></svg>