<svg id="Layer_1" data-name="Layer 1" xmlns="http://www.w3.org/2000/svg" viewBox="0 0 399.49 430.47"><path d="M398.49,430.47H384.05c-1.51-28.15-3-56.12-4.59-85.84-120.27,39.31-239.52,39.22-360,.08-1.58,29.44-3.08,57.38-4.6,85.65H0c.24-72,7.48-142.5,37.33-209.52l14.11,5.79c-9.57,23.67-18.2,47.45-23.23,72.46q171.09,55.13,342.41,0c-4.83-24.75-13.54-48.67-23.3-72.65l13.8-5.72C382.62,254.62,404.46,377.16,398.49,430.47ZM22.41,329.71c1.68.59,2.88,1.13,4.13,1.44,22.38,5.53,44.65,11.57,67.18,16.43a517.31,517.31,0,0,0,91.38,11.29c42.43,1.47,84.29-3.61,125.68-12.43,20.59-4.39,40.9-10.1,61.33-15.25,2-.5,4.62-.51,4-3.79-.71-4-1.45-8-2.22-12.25-57.64,16.22-115.42,27.58-174.82,27.56s-117-11.45-174.31-27.52C23.92,320.5,23.18,325,22.41,329.71Z"/><path d="M31.74,0H46.86c1.28,12.25,2.43,24.28,3.83,36.27.57,4.94,1.91,9.79,2.43,14.73.41,3.92,2.19,5,5.86,4.46,18.36-2.82,36.82-5.11,55.1-8.42,22.85-4.14,45.56-9,68.31-13.69,17.06-3.49,33.73-.46,50.39,2.8C261.43,41.75,290,47.58,318.72,53c7.16,1.36,14.53,1.56,21.78,2.48,3.38.43,4.69-.77,5.12-4.14,2.2-16.93,4.6-33.83,7-51.26h14.54c-.54,7.94-.3,16.12-1.77,24-6,32-12.38,63.82-18.81,95.68-4.68,23.16-4.75,38,.39,61.35l-15.08,4.32c-1.23-6.7-2.64-13.1-3.56-19.57-2.91-20.63,1.12-40.7,5.36-60.71,2.34-11,5-22,7.69-33.82-5.21-.57-10.26-.83-15.2-1.71Q288.71,62.93,251.28,56c-14.52-2.68-28.95-5.84-43.54-8-13.87-2.11-27.42,1.43-41,4-29,5.6-57.95,11.39-87,16.83-7.12,1.34-14.44,1.64-22.29,2.49,2.25,9.88,4.81,19.28,6.5,28.84,2.78,15.84,6.08,31.7,7.11,47.69.77,11.89-1.69,24-2.81,37.2L52,180.7c4.08-15.5,5.23-30.88,2.68-46.29-2.29-13.9-5.49-27.65-8.16-41.5C42,69.62,37.35,46.36,33.27,23,32,15.57,32.22,7.87,31.74,0Z"/><path d="M138.19,228.31c-1,6.13-1.88,11.94-2.89,18.36-6.25-4.28-12.31-7.8-17.63-12.22-10.31-8.58-22.24-12.27-35.25-14.54-17.84-3.11-35.34-8-51.37-16.76a69.58,69.58,0,0,1-15.29-11C5.39,182,5.44,169,15.52,158.57c3.4-3.53,7.54-6.34,11.79-9.85l7.83,13.42c-3.11,2.67-6.07,4.82-8.56,7.42-4,4.14-4.25,7.4-.07,11.2a64,64,0,0,0,13.77,9.62c16.43,8.36,34.36,12,52.2,16a30.56,30.56,0,0,0,20.62-2.25c9.58-4.48,19.54-8.15,30.07-12.47-1,7.39-1.84,14-2.76,21.09,6,.51,11.63,1.11,17.23,1.41a690.54,690.54,0,0,0,103.61-1.69c27.51-2.64,54.75-6.61,81-15.43,8.42-2.83,16.28-7.35,24.39-11.12a9.49,9.49,0,0,0,1.61-1.18c9.18-7,9.14-12-.17-19-1.57-1.19-3.2-2.3-5.18-3.71l7.54-13.24c7.8,4.42,14.49,9.42,18.26,17.42,4.06,8.62,2.75,17.12-3.62,23.6a78.27,78.27,0,0,1-19.4,14.41c-20.09,10.48-42.12,15.08-64.24,18.8-46.42,7.82-93.18,9.4-140.12,7C153.73,229.59,146.15,228.89,138.19,228.31Z"/></svg>