<svg xmlns="http://www.w3.org/2000/svg" version="1.1" xmlns:xlink="http://www.w3.org/1999/xlink" xmlns:svgjs="http://svgjs.com/svgjs" width="512" height="512" x="0" y="0" viewBox="0 0 256 256" style="enable-background:new 0 0 512 512" xml:space="preserve"><g><g xmlns="http://www.w3.org/2000/svg"><path d="m77.844 26.173s3.41 12.659 13.229 13.246c0 0-13.107 4.525-13.328 14.202 0 0-2.58-13.572-12.932-14.059 0 0 12.057-1.826 13.031-13.389z" fill="#D4D853" data-original="#d4d853"></path><path d="m77.744 55.12c-.713 0-1.335-.506-1.472-1.217-.024-.124-2.496-12.417-11.529-12.842-.771-.037-1.388-.651-1.428-1.421-.04-.771.511-1.445 1.274-1.56.441-.069 10.901-1.817 11.761-12.033.061-.725.634-1.301 1.359-1.367.724-.07 1.392.398 1.584 1.101.032.116 3.261 11.626 11.87 12.141.714.043 1.298.584 1.396 1.293.098.708-.319 1.388-.995 1.622-.121.042-12.124 4.311-12.319 12.819-.018.767-.61 1.396-1.375 1.459-.042.004-.085.005-.126.005zm-7.746-15.729c3.88 1.97 6.234 5.748 7.591 8.878 2.027-4.022 5.945-6.789 8.954-8.429-4.137-1.843-6.787-5.653-8.338-8.724-1.794 4.362-5.274 6.87-8.207 8.275z" fill="#3A312A" data-original="#3a312a"></path><path d="m56.134 43.153s2.412 8.954 9.357 9.369c0 0-9.271 3.201-9.427 10.045 0 0-1.825-9.6-9.147-9.944 0 0 8.528-1.291 9.217-9.47z" fill="#D4D853" data-original="#d4d853"></path><path d="m56.062 64.068c-.713 0-1.337-.507-1.472-1.22-.016-.082-1.705-8.442-7.744-8.726-.771-.037-1.388-.651-1.428-1.421-.04-.771.511-1.445 1.274-1.561.296-.047 7.369-1.243 7.947-8.114.061-.726.635-1.303 1.36-1.368.728-.063 1.392.399 1.582 1.102.021.079 2.229 7.919 7.999 8.265.715.043 1.299.585 1.396 1.294.098.709-.32 1.388-.997 1.622-.081.028-8.287 2.953-8.417 8.662-.018.767-.611 1.397-1.376 1.461-.04.002-.082.004-.124.004zm-4.521-11.528c2.108 1.333 3.525 3.395 4.45 5.281 1.376-2.233 3.517-3.873 5.368-4.974-2.289-1.27-3.887-3.351-4.944-5.225-1.174 2.288-3.017 3.877-4.874 4.918z" fill="#3A312A" data-original="#3a312a"></path><path d="m56.134 16.495s2.412 8.954 9.357 9.37c0 0-9.271 3.201-9.427 10.045 0 0-1.825-9.6-9.147-9.944 0 0 8.528-1.292 9.217-9.471z" fill="#D4D853" data-original="#d4d853"></path><path d="m56.062 37.41c-.713 0-1.337-.507-1.472-1.22-.016-.082-1.705-8.442-7.744-8.726-.771-.037-1.388-.651-1.428-1.421-.04-.771.511-1.445 1.274-1.561.296-.047 7.369-1.243 7.947-8.114.061-.726.635-1.303 1.36-1.368.728-.062 1.392.399 1.582 1.102.021.079 2.229 7.919 7.999 8.265.715.043 1.299.584 1.396 1.293.098.709-.32 1.388-.996 1.622-.081.028-8.287 2.953-8.418 8.662-.018.767-.611 1.397-1.376 1.461-.04.004-.082.005-.124.005zm-4.521-11.528c2.109 1.333 3.526 3.396 4.45 5.281 1.376-2.233 3.517-3.873 5.368-4.974-2.289-1.269-3.887-3.351-4.944-5.225-1.174 2.288-3.017 3.877-4.874 4.918z" fill="#3A312A" data-original="#3a312a"></path><path d="m159.58 239.775h22.356v-63.53c0-2.8 2.27-5.06 5.07-5.06 2.79 0 5.06 2.26 5.06 5.06v63.54h15.69v-75.39c0-8.95-7.25-16.2-16.2-16.2h-19.78v-16.02h-26.68v16.02h-19.85c-8.95 0-16.2 7.25-16.2 16.2v75.39h15.69v-63.54c0-2.8 2.27-5.06 5.06-5.06 2.8 0 5.07 2.26 5.07 5.06v63.53h10.355z" fill="#F4E0C4" data-original="#f4e0c4"></path><path d="m207.756 241.285h-15.69c-.828 0-1.5-.671-1.5-1.5v-63.54c0-1.963-1.597-3.56-3.56-3.56-1.969 0-3.57 1.597-3.57 3.56v63.53c0 .829-.672 1.5-1.5 1.5h-22.356c-.828 0-1.5-.671-1.5-1.5s.672-1.5 1.5-1.5h20.855v-62.03c0-3.617 2.947-6.56 6.57-6.56 3.617 0 6.56 2.943 6.56 6.56v62.04h12.69v-73.89c0-8.105-6.595-14.7-14.7-14.7h-19.779c-.828 0-1.5-.671-1.5-1.5v-14.52h-23.681v14.52c0 .829-.672 1.5-1.5 1.5h-19.85c-8.106 0-14.7 6.594-14.7 14.7v73.89h12.69v-62.04c0-3.617 2.943-6.56 6.56-6.56 3.623 0 6.57 2.943 6.57 6.56v62.03h8.855c.828 0 1.5.671 1.5 1.5s-.672 1.5-1.5 1.5h-10.355c-.828 0-1.5-.671-1.5-1.5v-63.53c0-1.963-1.602-3.56-3.57-3.56-1.963 0-3.56 1.597-3.56 3.56v63.54c0 .829-.671 1.5-1.5 1.5h-15.69c-.829 0-1.5-.671-1.5-1.5v-75.39c0-9.76 7.94-17.7 17.7-17.7h18.35v-14.52c0-.829.672-1.5 1.5-1.5h26.681c.828 0 1.5.671 1.5 1.5v14.52h18.279c9.76 0 17.7 7.94 17.7 17.7v75.39c.001.828-.671 1.5-1.499 1.5z" fill="#3A312A" data-original="#3a312a"></path><ellipse clip-rule="evenodd" cx="117.168" cy="88.637" fill="#F1DDC2" fill-rule="evenodd" rx="9.448" ry="9.448" transform="matrix(.215 -.977 .977 .215 5.419 184.015)" data-original="#f1ddc2"></ellipse><path d="m117.167 99.585c-6.037 0-10.948-4.911-10.948-10.948s4.911-10.948 10.948-10.948 10.949 4.911 10.949 10.948-4.911 10.948-10.949 10.948zm0-18.897c-4.383 0-7.948 3.565-7.948 7.948s3.565 7.948 7.948 7.948 7.949-3.565 7.949-7.948c0-4.382-3.566-7.948-7.949-7.948z" fill="#3A312A" data-original="#3a312a"></path><path clip-rule="evenodd" d="m209.083 88.637c0 5.218-4.23 9.448-9.448 9.448s-9.448-4.23-9.448-9.448 4.23-9.448 9.448-9.448c5.218-.001 9.448 4.23 9.448 9.448z" fill="#F1DDC2" fill-rule="evenodd" data-original="#f1ddc2"></path><path d="m199.635 99.585c-6.037 0-10.948-4.911-10.948-10.948s4.911-10.948 10.948-10.948 10.948 4.911 10.948 10.948-4.911 10.948-10.948 10.948zm0-18.897c-4.383 0-7.948 3.565-7.948 7.948s3.566 7.948 7.948 7.948c4.383 0 7.948-3.565 7.948-7.948 0-4.382-3.565-7.948-7.948-7.948z" fill="#3A312A" data-original="#3a312a"></path><path d="m200.699 80.333c-.191.072-.438.152-.55.303-.876-10.85-5.887-20.537-13.471-27.468-1.514-1.386-2.804-2.963-3.84-4.684 4.987-3.043 8.014-7.058 8.014-11.455 0-1.299-.239-2.613-.693-3.911 7.48 7.456 12.077 17.566 12.077 28.702.001 1.434.256 17.86-1.537 18.513z" fill="#87796F" data-original="#87796f"></path><path d="m200.149 82.136c-.137 0-.274-.019-.41-.057-.602-.171-1.034-.698-1.085-1.322-.821-10.173-5.434-19.578-12.987-26.481-1.617-1.481-3.001-3.169-4.113-5.018-.425-.707-.2-1.624.504-2.054 4.704-2.872 7.295-6.485 7.295-10.175 0-1.112-.205-2.262-.608-3.417-.23-.66.025-1.392.617-1.765.594-.374 1.364-.285 1.857.207 8.072 8.047 12.518 18.618 12.518 29.765l.003.506c.133 18.438-1.34 18.984-2.525 19.417-.018.006-.051.018-.053.02-.012.004-.023.008-.036.013-.272.233-.619.361-.977.361zm1.208-.611s0 .001-.001.001c.001 0 .001-.001.001-.001zm-16.44-32.602c.805 1.134 1.733 2.186 2.774 3.139 6.384 5.833 10.813 13.332 12.841 21.587.148-2.504.244-6.111.207-11.302l-.003-.527c0-8.75-2.957-17.124-8.41-24.024-.288 4.113-2.881 8.003-7.409 11.127z" fill="#3A312A" data-original="#3a312a"></path><path d="m186.678 53.16c-1.514-1.378-2.804-2.955-3.84-4.668-5.831 3.569-14.355 5.823-23.851 5.823-2.254 0-4.453-.128-6.58-.375-15.263-1.737-29.897 7.369-34.733 21.955-.47 1.402-.797 2.748-.948 3.999-.024.175-.04.351-.056.526-.096 1.195-.151 2.406-.151 3.633 0 23.126 23.166 58.639 41.886 58.639 19.605 0 41.879-35.514 41.879-58.639 0-12.235-5.242-23.237-13.606-30.893z" fill="#F1DDC2" data-original="#f1ddc2"></path><path d="m158.405 144.193c-9.069 0-19.984-7.961-29.197-21.295-8.752-12.667-14.189-27.552-14.189-38.845 0-1.213.051-2.441.156-3.752.019-.212.038-.41.064-.608.157-1.295.498-2.74 1.012-4.274 5.016-15.131 20.298-24.793 36.325-22.968 2.089.242 4.245.365 6.41.365 8.842 0 17.25-2.042 23.067-5.603.342-.208.752-.27 1.139-.178.388.095.722.34.929.682.971 1.606 2.17 3.065 3.565 4.335.001.001.002.002.003.003 8.957 8.198 14.094 19.861 14.094 32 0 11.419-5.307 26.301-13.848 38.837-9.223 13.537-19.987 21.301-29.53 21.301zm-9.716-88.963c-13.283 0-25.389 8.462-29.591 21.138-.452 1.346-.748 2.592-.883 3.707-.024.175-.037.327-.051.479-.098 1.218-.146 2.367-.146 3.5 0 10.716 5.233 24.947 13.657 37.14 8.653 12.523 18.646 20 26.73 20 8.409 0 18.522-7.474 27.052-19.992 8.221-12.064 13.327-26.299 13.327-37.147 0-11.298-4.781-22.154-13.118-29.785-1.243-1.132-2.353-2.395-3.309-3.766-6.188 3.388-14.604 5.313-23.37 5.313-2.28 0-4.552-.129-6.753-.384-1.187-.137-2.371-.203-3.545-.203z" fill="#3A312A" data-original="#3a312a"></path><path d="m147.703 83.578c0 2.258-1.83 4.088-4.088 4.088s-4.088-1.83-4.088-4.088 1.83-4.088 4.088-4.088c2.258-.001 4.088 1.83 4.088 4.088z" fill="#3A312A" data-original="#3a312a"></path><path d="m177.279 83.578c0 2.258-1.83 4.088-4.088 4.088s-4.088-1.83-4.088-4.088 1.83-4.088 4.088-4.088c2.258-.001 4.088 1.83 4.088 4.088z" fill="#3A312A" data-original="#3a312a"></path><path d="m142.485 95.732c0 2.908-3.153 5.265-7.043 5.265-3.889 0-7.042-2.357-7.042-5.265s3.153-5.265 7.042-5.265c3.89 0 7.043 2.357 7.043 5.265z" fill="#F59689" data-original="#f59689"></path><path d="m188.402 95.732c0 2.908-3.153 5.265-7.042 5.265s-7.042-2.357-7.042-5.265 3.153-5.265 7.042-5.265 7.042 2.357 7.042 5.265z" fill="#F59689" data-original="#f59689"></path><path d="m158.401 119.525c-6.032 0-10.382-2.711-12.928-8.059-.356-.748-.038-1.643.71-1.999.748-.357 1.644-.038 1.999.71 2.034 4.272 5.376 6.349 10.219 6.349 6.197 0 9.362-4.075 10.17-6.23.29-.776 1.152-1.17 1.931-.878.775.291 1.169 1.155.878 1.931-1.476 3.938-6.167 8.176-12.979 8.176z" fill="#3A312A" data-original="#3a312a"></path><path d="m162.367 16.296c-14.166-.885-26.699 5.665-32.829 11.587-9.25 7.599-14.007 21.36-14.007 33.935 0 2.298.405 15.371 1.139 18.606.12-1.396.475-2.923 1.007-4.529 4.832-14.583 19.47-23.691 34.733-21.952 2.122.242 4.322.369 6.577.369 17.598 0 31.863-7.737 31.863-17.281 0-9.545-13.035-19.769-28.483-20.735z" fill="#87796F" data-original="#87796f"></path><g fill="#3A312A"><path d="m116.669 81.924c-.695 0-1.306-.481-1.462-1.168-.781-3.446-1.176-16.616-1.176-18.938 0-14.247 5.558-27.672 14.509-35.056 6.848-6.59 19.973-12.837 33.92-11.963 15.643.978 29.891 11.574 29.891 22.231 0 10.532-14.655 18.781-33.363 18.781-2.273 0-4.543-.127-6.747-.378-14.628-1.664-28.568 7.136-33.14 20.933-.517 1.561-.832 2.969-.936 4.185-.063.737-.654 1.318-1.392 1.369-.035.003-.069.004-.104.004zm43.135-64.207c-12.123 0-23.263 5.486-29.224 11.245-.028.028-.059.055-.09.081-8.176 6.717-13.459 19.582-13.459 32.776 0 1.525.138 6.256.381 10.604 5.932-13.393 20.218-21.677 35.168-19.969 2.092.238 4.247.359 6.407.359 16.459 0 30.363-7.227 30.363-15.781 0-9.881-14.556-18.455-27.078-19.237-.826-.053-1.65-.078-2.468-.078z" fill="#3A312A" data-original="#3a312a"></path><path d="m149.651 190.079c-5.405 0-9.208-1.735-10.174-4.641-.261-.786.165-1.635.951-1.896.784-.263 1.636.165 1.896.951.413 1.246 2.883 2.586 7.326 2.586 4.679 0 7.25-1.587 7.25-2.114 0-.829.672-1.5 1.5-1.5s1.5.671 1.5 1.5c.001 3.357-5.155 5.114-10.249 5.114z" fill="#3A312A" data-original="#3a312a"></path><path d="m167.151 190.079c-5.094 0-10.25-1.756-10.25-5.114 0-.829.672-1.5 1.5-1.5s1.5.671 1.5 1.5c0 .526 2.571 2.114 7.25 2.114 3.77 0 6.22-.958 7.489-2.927.45-.697 1.38-.895 2.073-.448.696.449.897 1.377.448 2.074-1.84 2.854-5.208 4.301-10.01 4.301z" fill="#3A312A" data-original="#3a312a"></path><path d="m158.401 231.965c-.828 0-1.5-.671-1.5-1.5v-5c0-.829.672-1.5 1.5-1.5s1.5.671 1.5 1.5v5c0 .829-.672 1.5-1.5 1.5z" fill="#3A312A" data-original="#3a312a"></path></g><path d="m191.561 149.695h-16c8.1 0 14.69 6.59 14.69 14.7v6.15c1.98 1.13 3.32 3.26 3.32 5.7v62.04h12.68v-73.89c0-8.11-6.59-14.7-14.69-14.7z" fill="#DECAAD" data-original="#decaad"></path></g></g></svg>