<svg xmlns="http://www.w3.org/2000/svg" version="1.1" xmlns:xlink="http://www.w3.org/1999/xlink" xmlns:svgjs="http://svgjs.com/svgjs" width="512" height="512" x="0" y="0" viewBox="0 0 60 56" style="enable-background:new 0 0 512 512" xml:space="preserve" class=""><g><g xmlns="http://www.w3.org/2000/svg" id="Page-1" fill="none" fill-rule="evenodd"><g id="037---Heart-Pressure" fill="rgb(0,0,0)" fill-rule="nonzero"><path id="Shape" d="m28.3 37.944c-.9.544-1.83 1.078-2.817 1.612-15.8-8.789-23.483-17.139-23.483-25.526 0-6.858 4.837-12.03 11.25-12.03 4.4597812-.03420794 8.6823754 2.00540705 11.428 5.52.1869251.26880007.4935943.42907181.821.42907181s.6340749-.16027174.821-.42907181c2.7466456-3.51441934 6.9697247-5.55391164 11.43-5.52 3.6972883-.03302628 7.1547416 1.82679311 9.165 4.93.1936677.30491241.5367199.48168116.8974248.46242721.3607049-.01925396.68299-.23153753.843098-.55533403.160108-.32379649.1331498-.70877082-.0705228-1.00709318-2.3764464-3.66898943-6.4637855-5.86826829-10.835-5.83-4.6590661-.01820397-9.1086716 1.93417393-12.25 5.375-3.1413284-3.44082607-7.5909339-5.39320397-12.25-5.375-7.43 0-13.25 6.163-13.25 14.03 0 9.178 8.019 18.1 24.542 27.289.2978618.154559.6284261.2354856.964.236.3425975.0002438.6797006-.0860959.98-.251.981-.546 1.932-1.092 2.852-1.648.4727557-.2866358.6236357-.9022442.337-1.375-.2866358-.4727557-.9022443-.6236358-1.375-.337z" fill="#000000" data-original="#000000"></path><path id="Shape" d="m4 14.03c0 .5522847.44771525 1 1 1s1-.4477153 1-1c0-3.893 2.541-8.03 7.25-8.03.5522847 0 1-.44771525 1-1s-.4477153-1-1-1c-6.008 0-9.25 5.167-9.25 10.03z" fill="#000000" data-original="#000000"></path><path id="Shape" d="m44 9c-7.8589733-.00393657-14.5563542 5.7023881-15.8003652 13.4622795-1.2440109 7.7598914 3.3339946 15.2738063 10.8003652 17.7267205v3.811c.0044956 1.4225979.7666478 2.7350239 2 3.444v5.556c0 1.6568542 1.3431458 3 3 3s3-1.3431458 3-3v-5.556c1.2333522-.7089761 1.9955044-2.0214021 2-3.444v-3.811c7.4663706-2.4529142 12.0443761-9.9668291 10.8003652-17.7267205-1.244011-7.7598914-7.9413919-13.46621607-15.8003652-13.4622795zm1 44c0 .5522847-.4477153 1-1 1s-1-.4477153-1-1v-5h2zm2-9c0 1.1045695-.8954305 2-2 2h-2c-1.1045695 0-2-.8954305-2-2v-3.292c1.9810525.3893323 4.0189475.3893323 6 0zm-2-5.051v-1.949c0-.5522847-.4477153-1-1-1s-1 .4477153-1 1v1.949c-6.9322708-.5035239-12.4454761-6.0167292-12.949-12.949h1.949c.5522847 0 1-.4477153 1-1s-.4477153-1-1-1h-1.949c.5035239-6.9322708 6.0167292-12.4454761 12.949-12.949v1.949c0 .5522847.4477153 1 1 1s1-.4477153 1-1v-1.949c6.9322708.5035239 12.4454761 6.0167292 12.949 12.949h-1.949c-.5522847 0-1 .4477153-1 1s.4477153 1 1 1h1.949c-.5035239 6.9322708-6.0167292 12.4454761-12.949 12.949z" fill="#000000" data-original="#000000"></path><path id="Shape" d="m51.293 16.293-5.274 5.274c-.6095595-.3676011-1.3071846-.5635166-2.019-.567-2.209139 0-4 1.790861-4 4s1.790861 4 4 4 4-1.790861 4-4c-.0034834-.7118154-.1993989-1.4094405-.567-2.019l5.274-5.274c.3789722-.3923789.3735524-1.0160848-.0121814-1.4018186s-1.0094397-.3911536-1.4018186-.0121814zm-7.293 10.707c-.9052499.0006455-1.6980614-.6068353-1.9329353-1.4810847-.2348738-.8742494.146761-1.7972543.9304549-2.2503565.7836939-.4531023 1.7740157-.3233109 2.4144804.3164412.572274.5716373.7438841 1.4317017.4348184 2.1791942s-1.0379511 1.235229-1.8468184 1.2358058z" fill="#000000" data-original="#000000"></path></g></g></g></svg>