<svg xmlns="http://www.w3.org/2000/svg" version="1.1" xmlns:xlink="http://www.w3.org/1999/xlink" xmlns:svgjs="http://svgjs.com/svgjs" width="512" height="512" x="0" y="0" viewBox="0 0 64 64" style="enable-background:new 0 0 512 512" xml:space="preserve" class=""><g><g xmlns="http://www.w3.org/2000/svg" id="Layer_15" data-name="Layer 15"><path d="m57.63 23.79a.26.26 0 0 0 0-.15c-.25-12.8-15.23-20.27-25.63-12.96-14-9.41-31.1 5.54-24 20.68a16.28 16.28 0 0 0 3.13 4.38l20.16 20.18a1 1 0 0 0 .71.29 1 1 0 0 0 .71-.29l20.14-20.15a16.19 16.19 0 0 0 4.78-11.98zm-45.06-9.79a14.46 14.46 0 0 1 18.88-1.29 1 1 0 0 0 1.16 0c8.72-6.75 22-1 23 10h-6.49a1 1 0 0 0 -.95.68l-3.17 9.37-1.22-5a1 1 0 0 0 -1-.76h-3.28l-2.34-9a1 1 0 0 0 -1.94 0l-3 11.26-1.42-5.44a1 1 0 0 0 -1-.75h-3.99a1 1 0 0 0 -1 .83l-1.16 6.82-1.81-14.34a1 1 0 0 0 -1.94-.18l-4.47 13.8h-5.84a14.48 14.48 0 0 1 2.98-16zm40.27 18.73c.78-.35-20.59 20.73-20.84 21.06-.85-1-21.7-21.28-21.34-21.81h5.5a1 1 0 0 0 .95-.69l3.31-10.21 2.1 16.6a1 1 0 0 0 1 .87 1 1 0 0 0 1-.83l2.13-12.62h2.45l2.19 8.38a1 1 0 0 0 1.94 0l3-11.26 1.57 6a1 1 0 0 0 1 .75h3.2l1.85 7.58a1 1 0 0 0 1.92.08l4.07-11.91h5.8a14.26 14.26 0 0 1 -2.8 8.01z" fill="#000000" data-original="#000000" class=""></path></g></g></svg>