<svg xmlns="http://www.w3.org/2000/svg" version="1.1" xmlns:xlink="http://www.w3.org/1999/xlink" xmlns:svgjs="http://svgjs.com/svgjs" width="512" height="512" x="0" y="0" viewBox="0 0 64 64" style="enable-background:new 0 0 512 512" xml:space="preserve"><g><path xmlns="http://www.w3.org/2000/svg" d="M61,47.184V44a3,3,0,0,0-3-3H56.816A3,3,0,0,0,54,39H29a3,3,0,0,0-2.816,2H22v-.05A12.95,12.95,0,0,0,9.05,28H9V21a4,4,0,0,0-8,0V54a3,3,0,0,0,2,2.816V62a1,1,0,0,0,1,1H14a1,1,0,0,0,1-1V57H49v5a1,1,0,0,0,1,1H60a1,1,0,0,0,1-1V56.816A3,3,0,0,0,63,54V50A3,3,0,0,0,61,47.184ZM59,44v3H57V43h1A1,1,0,0,1,59,44ZM28,42a1,1,0,0,1,1-1H54a1,1,0,0,1,1,1v7H28Zm-2,5H9V43H26ZM9,36.95A12.672,12.672,0,0,0,13.049,41H9ZM9.05,30A10.949,10.949,0,0,1,20,40.95l-.05.05A10.949,10.949,0,0,1,9,30.05V30ZM5,19a2,2,0,0,1,2,2V47H3V21A2,2,0,0,1,5,19Zm8,42H5V57h8Zm38,0V57h8v4Zm10-7a1,1,0,0,1-1,1H4a1,1,0,0,1-1-1V49H26v1a1,1,0,0,0,1,1H56a1,1,0,0,0,1-1V49h3a1,1,0,0,1,1,1Z" fill="#000000" data-original="#000000"></path><path xmlns="http://www.w3.org/2000/svg" d="M49,1A14,14,0,1,0,63,15,14.015,14.015,0,0,0,49,1Zm0,26A12,12,0,1,1,61,15,12.013,12.013,0,0,1,49,27Z" fill="#000000" data-original="#000000"></path><path xmlns="http://www.w3.org/2000/svg" d="M49,5A10,10,0,1,0,59,15,10.011,10.011,0,0,0,49,5Zm0,18a8,8,0,1,1,8-8A8.009,8.009,0,0,1,49,23Z" fill="#000000" data-original="#000000"></path><path xmlns="http://www.w3.org/2000/svg" d="M50,13.278V10H48v3.278A1.993,1.993,0,0,0,47,15a1.941,1.941,0,0,0,.03.3l-3.655,2.923,1.25,1.562,3.652-2.922A1.976,1.976,0,0,0,49,17a1.994,1.994,0,0,0,1-3.722Z" fill="#000000" data-original="#000000"></path><path xmlns="http://www.w3.org/2000/svg" d="M18.924,19.617A1,1,0,0,0,18,19H13v2h2.586l-2.293,2.293A1,1,0,0,0,14,25h5V23H16.414l2.293-2.293A1,1,0,0,0,18.924,19.617Z" fill="#000000" data-original="#000000"></path><path xmlns="http://www.w3.org/2000/svg" d="M25.924,13.617A1,1,0,0,0,25,13H20v2h2.586l-2.293,2.293A1,1,0,0,0,21,19h5V17H23.414l2.293-2.293A1,1,0,0,0,25.924,13.617Z" fill="#000000" data-original="#000000"></path><path xmlns="http://www.w3.org/2000/svg" d="M32.924,7.617A1,1,0,0,0,32,7H27V9h2.586l-2.293,2.293A1,1,0,0,0,28,13h5V11H30.414l2.293-2.293A1,1,0,0,0,32.924,7.617Z" fill="#000000" data-original="#000000"></path></g></svg>