<svg xmlns="http://www.w3.org/2000/svg" version="1.1" xmlns:xlink="http://www.w3.org/1999/xlink" xmlns:svgjs="http://svgjs.com/svgjs" width="512" height="512" x="0" y="0" viewBox="0 0 512 512" style="enable-background:new 0 0 512 512" xml:space="preserve"><g><path xmlns="http://www.w3.org/2000/svg" d="m123.070312 417.070312c1.859376-1.859374 2.929688-4.441406 2.929688-7.070312s-1.070312-5.210938-2.929688-7.070312c-1.859374-1.859376-4.441406-2.929688-7.070312-2.929688s-5.210938 1.070312-7.070312 2.929688c-1.859376 1.859374-2.929688 4.441406-2.929688 7.070312s1.070312 5.210938 2.929688 7.070312c1.859374 1.859376 4.441406 2.929688 7.070312 2.929688s5.210938-1.070312 7.070312-2.929688zm0 0" fill="#000000" data-original="#000000"></path><path xmlns="http://www.w3.org/2000/svg" d="m502 308h-44v-28.8125c0-53.402344-43.441406-96.84375-96.84375-96.84375h-34.628906l-60.542969-78.6875c0-.109375.015625-.214844.015625-.324219v-93.332031c0-5.523438-4.476562-10-10-10s-10 4.476562-10 10v78.792969c-24.574219-.992188-47.566406-11.011719-65.085938-28.457031l-7.273437-7.246094v-43.089844c0-5.523438-4.476563-10-10-10s-10 4.476562-10 10v44.738281l-54.257813 101.558594c-.03125.054687-.066406.101563-.097656.160156-13.175781 24.859375-4.765625 55.941407 19.152344 70.757813l130.394531 80.785156h-50.832031c-5.523438 0-10 4.476562-10 10v82h-20c-5.523438 0-10 4.476562-10 10s4.476562 10 10 10h324v72h-472v-72h54.914062c5.523438 0 10-4.476562 10-10s-4.476562-10-10-10h-64.914062c-5.523438 0-10 4.476562-10 10v92c0 5.523438 4.476562 10 10 10h492c5.523438 0 10-4.476562 10-10v-184c0-5.523438-4.476562-10-10-10zm-257.324219-199.238281 17.53125 22.785156c-38.648437-1.355469-75.765625-15.242187-105.796875-39.554687l9.707032-18.167969.6875.679687c20.976562 20.890625 48.464843 32.945313 77.871093 34.257813zm-97.839843 1.15625c34.511718 26.855469 77.023437 41.605469 121.019531 41.746093h9.832031l4.683594 6.085938-22.796875 22.800781c-3.90625 3.902344-3.90625 10.234375 0 14.140625 1.953125 1.953125 4.511719 2.929688 7.070312 2.929688 2.558594 0 5.117188-.976563 7.070313-2.929688l20.957031-20.953125 13.652344 17.746094-19.324219 19.324219c-3.90625 3.90625-3.90625 10.238281 0 14.140625 1.953125 1.953125 4.511719 2.929687 7.070312 2.929687 2.558594 0 5.121094-.976562 7.070313-2.929687l22.605469-22.605469h22.019531l-19.316406 19.316406c-3.90625 3.90625-3.90625 10.238282 0 14.144532 1.953125 1.953124 4.511719 2.925781 7.070312 2.925781 2.558594 0 5.121094-.972657 7.070313-2.925781l31.519531-31.519532c.230469-.230468.445313-.472656.648437-.71875 33.820313 6.070313 60.042969 34.328125 62.972657 69.125h-139.898438l-176.554687-114.929687zm-17.863282 100.296875c-11.707031-7.253906-17.492187-20.71875-15.542968-33.695313l175.980468 114.550781c1.621094 1.058594 3.519532 1.621094 5.453125 1.621094h143.140625v15.308594h-151.195312zm79.027344 189.785156v-72h284v72zm0 0" fill="#000000" data-original="#000000"></path></g></svg>