<svg xmlns="http://www.w3.org/2000/svg" version="1.1" xmlns:xlink="http://www.w3.org/1999/xlink" xmlns:svgjs="http://svgjs.com/svgjs" width="512" height="512" x="0" y="0" viewBox="0 0 512 512" style="enable-background:new 0 0 512 512" xml:space="preserve"><g><path xmlns="http://www.w3.org/2000/svg" d="m151.984375 337.257812v15.3125c0 4.140626 3.359375 7.5 7.5 7.5 4.144531 0 7.5-3.359374 7.5-7.5v-15.3125c0-4.140624-3.355469-7.5-7.5-7.5-4.140625 0-7.5 3.359376-7.5 7.5zm0 0" fill="#000000" data-original="#000000"></path><path xmlns="http://www.w3.org/2000/svg" d="m321.1875 337.257812v15.3125c0 4.140626 3.359375 7.5 7.5 7.5s7.5-3.359374 7.5-7.5v-15.3125c0-4.140624-3.359375-7.5-7.5-7.5s-7.5 3.359376-7.5 7.5zm0 0" fill="#000000" data-original="#000000"></path><path xmlns="http://www.w3.org/2000/svg" d="m259.320312 346.566406c-3.707031 4.242188-9.261718 6.675782-15.234374 6.675782-5.972657 0-11.527344-2.433594-15.234376-6.675782-2.726562-3.117187-7.464843-3.433594-10.582031-.710937-3.117187 2.726562-3.4375 7.464843-.710937 10.585937 6.554687 7.5 16.226562 11.800782 26.527344 11.800782 10.300781 0 19.972656-4.300782 26.527343-11.800782 2.726563-3.117187 2.40625-7.855468-.710937-10.582031-3.117188-2.726563-7.855469-2.410156-10.582032.707031zm0 0" fill="#000000" data-original="#000000"></path><path xmlns="http://www.w3.org/2000/svg" d="m387.0625 0h-285.953125c-55.75 0-101.109375 45.359375-101.109375 101.109375v42.195313c0 4.140624 3.359375 7.5 7.5 7.5s7.5-3.359376 7.5-7.5v-42.195313c0-47.480469 38.628906-86.109375 86.109375-86.109375h285.953125c47.480469 0 86.109375 38.628906 86.109375 86.109375v358.613281c0 20.554688-16.722656 37.277344-37.277344 37.277344h-383.617187c-20.554688 0-37.277344-16.722656-37.277344-37.277344v-286.417968c0-4.140626-3.359375-7.5-7.5-7.5s-7.5 3.359374-7.5 7.5v286.421874c0 28.824219 23.449219 52.273438 52.277344 52.273438h383.621094c28.824218 0 52.273437-23.449219 52.273437-52.273438v-358.617187c0-55.75-45.359375-101.109375-101.109375-101.109375zm0 0" fill="#000000" data-original="#000000"></path><path xmlns="http://www.w3.org/2000/svg" d="m52.882812 275.820312v146.359376c0 17.25 14.035157 31.28125 31.28125 31.28125h319.84375c17.246094 0 31.28125-14.03125 31.28125-31.28125v-36.019532c0-4.140625-3.359374-7.5-7.5-7.5-4.144531 0-7.5 3.359375-7.5 7.5v36.019532c0 8.976562-7.304687 16.28125-16.28125 16.28125h-319.84375c-8.976562 0-16.28125-7.304688-16.28125-16.28125v-146.359376c0-8.976562 7.304688-16.28125 16.28125-16.28125h319.84375c8.976563 0 16.28125 7.304688 16.28125 16.28125v80.339844c0 4.140625 3.355469 7.5 7.5 7.5 4.140626 0 7.5-3.359375 7.5-7.5v-80.339844c0-17.25-14.035156-31.28125-31.28125-31.28125h-319.84375c-17.246093 0-31.28125 14.03125-31.28125 31.28125zm0 0" fill="#000000" data-original="#000000"></path><path xmlns="http://www.w3.org/2000/svg" d="m171.808594 204.199219c3.308594.03125 6.640625-.445313 9.878906-1.488281 14.207031-4.582032 29.160156-7.558594 44.457031-8.855469 11.929688-1.011719 23.960938-1.015625 35.890625 0 15.289063 1.296875 30.246094 4.273437 44.449219 8.851562 15.417969 4.976563 32.371094-2.328125 39.429687-16.996093l28.78125-59.839844c6.882813-14.308594 2.535157-31.441406-10.332031-40.734375-19.355469-13.984375-41.460937-23.914063-64.523437-29.953125-17.832032-4.660156-36.621094-7.09375-55.753906-7.09375-19.132813 0-37.921876 2.433594-55.753907 7.09375-22.855469 4.789062-45.703125 16.355468-64.515625 29.949218-12.871094 9.296876-17.21875 26.429688-10.335937 40.738282 0 0 28.765625 59.8125 28.78125 59.84375 5.429687 11.296875 17.324219 18.371094 29.546875 18.484375zm81.910156-25.902344c-3.214844-.136719-6.433594-.207031-9.632812-.207031-3.234376 0-6.488282.070312-9.734376.210937 0 0 8.25-53.171875 8.253907-53.210937.121093-.769532.640625-1.410156 1.480469-1.410156.832031 0 1.355468.644531 1.476562 1.410156l8.257812 53.210937c-.03125 0-.066406 0-.101562-.003906zm-121.117188-81.011719c2.09375-1.511718 4.234376-2.976562 6.410157-4.394531 0 0 11.648437 17.515625 11.660156 17.527344 2.261719 3.40625 6.992187 4.355469 10.394531 2.09375 3.449219-2.292969 4.386719-6.949219 2.09375-10.398438l-11.210937-16.855469c10.207031-5.429687 21.105469-9.917968 32.503906-13.402343 0 0 4.675781 18.679687 4.679687 18.707031.984376 3.9375 5.167969 6.441406 9.097657 5.457031 4.019531-1.007812 6.460937-5.078125 5.453125-9.097656l-4.726563-18.890625c12.175781-2.722656 24.789063-4.347656 37.628907-4.804688v24.515626c0 4.144531 3.355468 7.5 7.5 7.5 4.140624 0 7.5-3.355469 7.5-7.5v-24.515626c12.835937.457032 25.453124 2.078126 37.628906 4.800782l-4.730469 18.894531c-1.003906 4.015625 1.4375 8.089844 5.457031 9.09375 3.242188.816406 9.09375-1.339844 9.09375-5.453125l4.683594-18.707031c11.398438 3.484375 22.296875 7.972656 32.5 13.402343l-11.207031 16.855469c-2.296875 3.449219-1.359375 8.105469 2.089843 10.398438 3.34375 2.222656 8.109376 1.351562 10.398438-2.09375l11.65625-17.527344c2.179688 1.417969 4.320312 2.882813 6.414062 4.398437 6.976563 5.042969 9.332032 14.328126 5.605469 22.082032l-28.777343 59.835937c-3.828126 7.945313-12.988282 11.910157-21.3125 9.226563-13.457032-4.339844-27.527344-7.335938-41.902344-8.945313l-8.789063-56.636719c-1.132812-8.085937-8.132812-14.171874-16.308593-14.171874-8.179688 0-15.175782 6.085937-16.3125 14.171874l-8.789063 56.636719c-14.375 1.609375-28.445313 4.605469-41.90625 8.945313-8.320313 2.683594-17.480469-1.28125-21.304687-9.222656l-28.78125-59.84375c-3.726563-7.75-1.371094-17.039063 5.609374-22.082032zm0 0" fill="#000000" data-original="#000000"></path></g></svg>